<svg width="319" height="194" viewBox="0 0 319 194" fill="none" xmlns="http://www.w3.org/2000/svg">
<g clip-path="url(#clip0)">
<g opacity="0.5">
<path opacity="0.5" d="M140.182 0H0V115.277H140.182V0Z" fill="url(#paint0_linear)"/>
</g>
<path d="M138.278 2.18066H1.63477V113.37H138.278V2.18066Z" fill="#F2F2F2"/>
<path d="M138.278 2.18066H1.63477V26.9806H138.278V2.18066Z" fill="#001EC8"/>
<path opacity="0.1" d="M138.278 2.18066H1.63477V26.9806H138.278V2.18066Z" fill="black"/>
<path d="M127.389 35.9707H12.5215V50.4145H127.389V35.9707Z" fill="#E0E0E0"/>
<path d="M96.3575 61.3154H12.5215V66.2213H96.3575V61.3154Z" fill="#E0E0E0"/>
<path d="M66.9601 69.7646H12.5215V74.6705H66.9601V69.7646Z" fill="#E0E0E0"/>
<path d="M84.3823 78.2139H12.5215V83.1197H84.3823V78.2139Z" fill="#E0E0E0"/>
<path d="M96.3575 86.6602H12.5215V91.566H96.3575V86.6602Z" fill="#E0E0E0"/>
<path d="M40.558 95.1084H12.5215V100.014H40.558V95.1084Z" fill="#E0E0E0"/>
<g opacity="0.5">
<path opacity="0.5" d="M319.001 0H178.818V115.277H319.001V0Z" fill="url(#paint1_linear)"/>
</g>
<path d="M180.726 113.367L317.369 113.367V2.17827L180.726 2.17827V113.367Z" fill="#F2F2F2"/>
<path d="M180.726 26.9775L317.369 26.9775V2.17764L180.726 2.17764V26.9775Z" fill="#001EC8"/>
<path opacity="0.1" d="M180.726 26.9775L317.369 26.9775V2.17764L180.726 2.17764V26.9775Z" fill="black"/>
<path d="M191.613 50.418L306.48 50.418V35.9742L191.613 35.9742V50.418Z" fill="#E0E0E0"/>
<path d="M222.642 66.2246L306.479 66.2246V61.3187L222.642 61.3187V66.2246Z" fill="#E0E0E0"/>
<path d="M252.04 74.6699H306.479V69.7641H252.04V74.6699Z" fill="#E0E0E0"/>
<path d="M234.62 83.1162L306.48 83.1162V78.2104L234.62 78.2104V83.1162Z" fill="#E0E0E0"/>
<path d="M222.642 91.5654L306.479 91.5654V86.6596L222.642 86.6596V91.5654Z" fill="#E0E0E0"/>
<path d="M278.444 100.015H306.48V95.1088H278.444V100.015Z" fill="#E0E0E0"/>
<g opacity="0.5">
<path opacity="0.5" d="M247.048 50.2949H72.291V194.003H247.048V50.2949Z" fill="url(#paint2_linear)"/>
</g>
<path d="M244.675 53.0107H74.3281V191.621H244.675V53.0107Z" fill="#D7D7D7"/>
<path d="M244.675 53.0107H74.3281V83.9249H244.675V53.0107Z" fill="#001EC8"/>
<path d="M231.1 95.1367H87.9004V113.143H231.1V95.1367Z" fill="#F5F5F5"/>
<path d="M192.415 126.733H87.9004V132.848H192.415V126.733Z" fill="#F5F5F5"/>
<path d="M155.766 137.267H87.9004V143.381H155.766V137.267Z" fill="#F5F5F5"/>
<path d="M177.485 147.796H87.9004V153.91H177.485V147.796Z" fill="#F5F5F5"/>
<path d="M192.415 158.328H87.9004V164.442H192.415V158.328Z" fill="#F5F5F5"/>
<path d="M122.852 168.86H87.9004V174.975H122.852V168.86Z" fill="#F5F5F5"/>
<path d="M136.084 101.255H95.3652V106.689H136.084V101.255Z" fill="#2A3042"/>
</g>
<defs>
<linearGradient id="paint0_linear" x1="70.0912" y1="115.277" x2="70.0912" y2="0" gradientUnits="userSpaceOnUse">
<stop stop-color="#808080" stop-opacity="0.25"/>
<stop offset="0.54" stop-color="#808080" stop-opacity="0.12"/>
<stop offset="1" stop-color="#808080" stop-opacity="0.1"/>
</linearGradient>
<linearGradient id="paint1_linear" x1="-43988.4" y1="55497" x2="-43988.4" y2="13268.9" gradientUnits="userSpaceOnUse">
<stop stop-color="#808080" stop-opacity="0.25"/>
<stop offset="0.54" stop-color="#808080" stop-opacity="0.12"/>
<stop offset="1" stop-color="#808080" stop-opacity="0.1"/>
</linearGradient>
<linearGradient id="paint2_linear" x1="88848.7" y1="88646.2" x2="88848.7" y2="23019.1" gradientUnits="userSpaceOnUse">
<stop stop-color="#808080" stop-opacity="0.25"/>
<stop offset="0.54" stop-color="#808080" stop-opacity="0.12"/>
<stop offset="1" stop-color="#808080" stop-opacity="0.1"/>
</linearGradient>
<clipPath id="clip0">
<rect width="319" height="194" fill="white"/>
</clipPath>
</defs>
</svg>
