<svg width="308" height="214" viewBox="0 0 308 214" fill="none" xmlns="http://www.w3.org/2000/svg">
<path opacity="0.1" d="M179.926 33.6572C160.329 32.9774 141.666 26.6659 123.841 19.7593C106.016 12.8526 88.367 5.19975 69.2402 1.55609C56.9381 -0.797481 42.8708 -1.12982 32.9577 5.45052C23.4201 11.7952 20.3377 22.7171 18.6785 32.8595C17.434 40.4943 16.6983 48.5248 20.1167 55.6702C22.4875 60.6311 26.6992 64.8005 29.612 69.5529C39.7431 86.0854 32.5823 106.473 21.6003 122.616C16.453 130.187 10.4761 137.42 6.50053 145.475C2.52499 153.529 0.687099 162.771 4.16305 170.995C7.61175 179.153 15.8263 185.268 24.722 189.573C42.7951 198.317 64.0838 200.821 84.8608 202.238C130.829 205.377 177.046 204.018 223.136 202.658C240.195 202.154 257.326 201.643 274.106 199.012C283.426 197.549 293.048 195.229 299.812 189.646C308.399 182.537 310.528 170.497 304.775 161.584C295.122 146.632 268.441 142.916 261.686 126.87C257.971 118.038 261.786 108.198 267.182 100.007C278.76 82.4326 298.165 67.0181 299.189 46.9296C299.891 33.1345 290.562 19.3182 276.138 12.7892C261.017 5.94601 240.052 6.80707 228.904 18.1338C217.41 29.7688 197.227 34.2554 179.926 33.6572Z" fill="#001EC8"/>
<g opacity="0.1">
<path opacity="0.1" d="M26.1464 99.207C26.1464 99.207 3.5164 89.7081 0.540046 106.836C0.540046 106.836 -1.00718 109.507 1.14561 111.712C1.14561 111.712 1.60887 110.528 3.79496 111.751C4.57577 112.182 5.40517 112.519 6.26568 112.754C7.42779 113.074 8.66261 113.009 9.78401 112.567C9.78401 112.567 17.2294 112.165 23.491 102.446C23.491 102.446 26.1767 100.79 26.3099 100.168L21.8227 100.47C21.8227 100.47 22.1678 103.748 20.3088 105.715C20.3088 105.715 21.9559 100.627 21.1656 100.485C21.0052 100.455 18.7948 100.745 18.7948 100.745C18.7948 100.745 19.3671 106.446 16.3726 109.395C16.3726 109.395 19.1521 103.597 17.944 100.848L14.6316 101.485C14.6316 101.485 15.5399 107.482 12.2638 110.969C12.2638 110.969 14.9586 104.805 13.917 101.675L10.7469 102.739C10.7469 102.739 11.5099 108.603 8.76969 111.501C8.76969 111.501 11.1617 104.065 10.0353 103.041C10.0353 103.041 7.18311 104.195 6.57451 104.854C6.57451 104.854 7.02566 109.084 5.28466 110.609C5.28466 110.609 6.35348 105.473 5.82361 105.262C5.82361 105.262 2.51116 107.751 1.49987 109.899C1.49987 109.899 2.75945 106.618 5.4088 104.763C5.4088 104.763 3.18334 104.389 1.47262 105.316C1.47262 105.316 2.61714 103.138 6.21117 104.171C6.21117 104.171 8.87264 102.331 9.40553 102.358C9.40553 102.358 6.00528 100.848 3.54971 101.035C3.54971 101.035 6.18392 99.5243 10.2352 102.047L13.3992 100.908C13.3992 100.908 9.00889 98.6632 6.81068 98.6723C6.81068 98.6723 9.73557 97.5423 14.2198 100.684L17.4596 100.026C17.4596 100.026 13.8262 97.8052 11.3767 97.2885C11.3767 97.2885 14.3136 96.8233 18.3952 99.8717L20.6085 99.6874C20.6085 99.6874 17.9289 98.1103 17.1174 97.7266C16.306 97.3429 16.3423 97.0952 16.3423 97.0952C18.2726 97.4301 20.0716 98.2942 21.5381 99.5907C21.5381 99.5907 26.1282 99.488 26.1464 99.207Z" fill="#001EC8"/>
</g>
<g opacity="0.1">
<path opacity="0.1" d="M25.3155 82.179C25.3155 82.179 17.2887 63.6677 5.74658 72.1575C5.74658 72.1575 3.30615 72.8645 3.32432 75.3902C3.32432 75.3902 4.27506 74.9491 4.8776 76.922C5.09853 77.6218 5.40353 78.2924 5.78594 78.9191C6.29136 79.7708 7.06236 80.4341 7.98112 80.8074C7.98112 80.8074 12.6349 84.8015 21.9091 82.5869C21.9091 82.5869 24.4525 83.1277 24.8855 82.8377L22.0514 80.4599C22.0514 80.4599 20.3831 82.605 18.1486 82.7078C18.1486 82.7078 22.0333 80.6231 21.6457 80.0883C21.567 79.9795 20.0864 78.8979 20.0864 78.8979C20.0864 78.8979 17.1736 82.608 13.7279 82.6655C13.7279 82.6655 18.6906 80.7983 19.5414 78.481L17.2099 76.9704C17.2099 76.9704 14.3214 81.0461 10.3882 81.2575C10.3882 81.2575 15.5083 79.1275 16.677 76.6743L14.1851 75.505C14.1851 75.505 11.2905 79.4327 8.01746 79.5807C8.01746 79.5807 13.6856 76.5232 13.5977 75.2754C13.5977 75.2754 11.2451 74.3388 10.4972 74.3932C10.4972 74.3932 8.35657 77.1577 6.44601 77.0791C6.44601 77.0791 10.0158 74.6349 9.82204 74.2089C9.82204 74.2089 6.43087 73.8041 4.60509 74.511C4.60509 74.511 7.22719 73.2784 9.85838 73.6832C9.85838 73.6832 8.75019 72.1937 7.20902 71.7798C7.20902 71.7798 9.13473 71.1363 10.6789 73.789C10.6789 73.789 13.3071 74.2119 13.6159 74.5261C13.6159 74.5261 12.4623 71.6892 10.8909 70.4112C10.8909 70.4112 13.3131 71.0154 14.282 74.8132L16.8133 75.9341C16.8133 75.9341 15.4871 72.1031 14.173 70.8614C14.173 70.8614 16.5559 71.8523 17.4279 76.2694L19.7291 77.7166C19.7291 77.7166 18.8389 74.3328 17.6793 72.6318C17.6793 72.6318 19.6897 74.0276 20.371 78.1577L21.7941 79.3058C21.7941 79.3058 21.1007 76.8465 20.8373 76.1576C20.5739 75.4688 20.7374 75.3419 20.7374 75.3419C21.6938 76.6374 22.2695 78.1733 22.3996 79.7771C22.3996 79.7771 25.1368 82.3331 25.3155 82.179Z" fill="#001EC8"/>
</g>
<path d="M282.578 201.565C282.276 200.471 281.973 199.362 281.367 198.41C280.805 197.603 280.137 196.874 279.381 196.244C277.186 194.253 274.488 192.232 271.578 192.737C270.676 192.933 269.804 193.25 268.986 193.679C268.563 193.876 268.136 194.072 267.7 194.238C266.471 194.75 265.114 194.868 263.815 194.576C263.149 194.398 262.528 194.078 261.871 193.879C261.558 193.785 261.238 193.717 260.914 193.673C261.549 193.387 262.165 193.063 262.761 192.703C266.028 190.688 268.635 187.063 268.269 183.226C268.148 181.926 267.7 180.685 267.258 179.461C266.87 178.392 266.481 177.321 266.092 176.249C265.589 174.857 265.071 173.44 264.151 172.283C263.128 170.995 261.674 170.122 260.172 169.47C256.945 168.071 253.417 167.578 249.935 167.101L249.693 167.068V129.531C249.695 129.213 249.634 128.897 249.513 128.602C249.392 128.307 249.214 128.039 248.989 127.813C248.764 127.587 248.496 127.407 248.201 127.285C247.906 127.162 247.59 127.099 247.271 127.099H242.69C242.488 125.867 242.286 124.635 242.084 123.404C241.506 119.897 240.909 116.319 239.289 113.159C238.23 111.09 236.54 109.12 234.266 108.712C233.819 108.67 233.379 108.569 232.958 108.41C232.292 108.083 231.929 107.358 231.414 106.821C230.094 105.44 227.947 105.419 226.176 104.706C224.614 104.086 223.336 102.917 221.913 102.02C220.49 101.122 218.718 100.482 217.141 101.068C217.141 101.183 217.12 101.295 217.108 101.409L216.096 100.956C215.006 100.455 213.892 99.935 213.017 99.1072C211.891 98.0467 211.291 96.6479 210.825 95.1554C210.776 94.9983 210.731 94.8532 210.686 94.6871C212.62 92.7141 213.93 90.2164 214.452 87.5055C214.534 87.7683 214.619 88.0342 214.7 88.3001C214.775 88.5704 214.876 88.8325 215.003 89.0826C215.045 89.1652 215.093 89.245 215.146 89.3213C215.245 89.4696 215.37 89.5994 215.515 89.705C215.658 89.8092 215.826 89.8747 216.002 89.8953C216.087 89.9072 216.172 89.9072 216.257 89.8953C216.485 89.8471 216.698 89.7425 216.876 89.591C217.054 89.4395 217.191 89.246 217.274 89.0282C217.322 88.9094 217.358 88.7859 217.38 88.6596C217.392 88.5836 217.399 88.5069 217.401 88.43C217.401 88.4058 217.401 88.3817 217.401 88.3575C217.401 88.3333 217.401 88.2517 217.401 88.2004C217.401 88.149 217.401 88.143 217.401 88.1158C217.401 88.0886 217.401 88.0131 217.401 87.9647V87.8862C217.401 87.8257 217.383 87.7653 217.371 87.7079C217.359 87.6505 217.371 87.6747 217.371 87.6596C217.356 87.581 217.338 87.5055 217.323 87.4269C217.321 87.4099 217.321 87.3927 217.323 87.3756L217.277 87.1852L217.25 87.0704V87.0402C217.22 86.9224 217.192 86.8015 217.165 86.6807C216.945 85.6311 216.889 84.5539 216.999 83.4872C217.181 81.9224 217.47 80.3719 217.865 78.8465L217.928 78.5716L218.001 78.2513C218.049 78.0338 218.095 77.8163 218.14 77.5987C218.179 77.4144 218.216 77.2271 218.249 77.0398C218.282 76.8525 218.307 76.7105 218.331 76.5443C218.331 76.5232 218.331 76.505 218.331 76.4839C218.516 75.3578 218.566 74.2137 218.479 73.0759C218.337 71.4958 217.846 70.0002 216.768 68.8068C216.008 67.9639 215.009 67.3415 214.304 66.4563C213.641 65.6254 213.268 64.6042 212.584 63.7915C210.692 61.5376 205.838 59.8004 202.859 59.4983C199.446 59.1538 193.933 60.024 191.183 62.0361C190.166 62.7794 189.47 63.8489 188.761 64.8671C187.459 66.7584 185.978 68.6437 183.892 69.7011C183.102 70.0999 182.2 70.4021 181.676 71.0969C181.359 71.568 181.153 72.1038 181.07 72.665C180.668 74.634 180.459 76.6376 180.447 78.6471C180.401 79.5261 180.514 80.4061 180.78 81.2454C180.822 81.3602 180.874 81.478 180.928 81.5898C180.976 81.6895 181.031 81.7892 181.088 81.892L181.125 81.9554C181.49 82.4788 181.815 83.0293 182.097 83.602C182.163 83.7634 182.212 83.9316 182.242 84.1035C182.294 84.5471 182.265 84.9964 182.157 85.4299C182.157 85.4963 182.133 85.5598 182.118 85.6232L182.091 85.7622C182.091 85.8045 182.091 85.8498 182.066 85.8921C182.042 86.0231 182.021 86.153 182.003 86.2819C182.003 86.3725 181.985 86.4662 181.982 86.5598C181.96 86.934 182.032 87.3077 182.191 87.6475C182.23 87.7285 182.278 87.8054 182.333 87.8771C182.441 88.022 182.581 88.1407 182.742 88.2246C183.102 88.3598 183.479 88.4491 183.862 88.4904C184.994 88.7442 185.703 89.6083 186.163 90.6688C186.265 90.9068 186.355 91.1498 186.433 91.3969C186.621 92.0168 186.763 92.6501 186.857 93.2912C187.371 93.264 187.671 92.8109 187.853 92.3154C187.909 92.152 187.957 91.9856 187.995 91.8169C188.065 91.4996 188.134 91.1824 188.207 90.8652C189.402 93.3956 191.327 95.5123 193.736 96.944C193.821 97.1917 193.902 97.4425 193.978 97.6963C194.375 99.0649 194.565 100.5 193.878 101.696C193.388 102.545 192.561 103.071 191.64 103.434C191.508 103.256 191.337 103.111 191.141 103.008C190.342 102.609 189.385 103.095 188.719 103.69C187.507 104.784 186.52 106.352 184.925 106.712C184.349 106.845 183.714 106.817 183.232 107.168C182.915 107.465 182.65 107.814 182.448 108.198C182.102 108.694 181.637 109.094 181.095 109.364C180.553 109.633 179.952 109.762 179.347 109.739C178.793 109.712 178.136 109.585 177.758 109.99C177.476 110.292 177.455 110.772 177.152 111.059C176.744 111.458 176.08 111.262 175.511 111.238C175.1 111.239 174.693 111.323 174.316 111.486C173.938 111.65 173.598 111.888 173.316 112.186C173.28 110.967 172.813 109.8 171.996 108.893C171.178 108.053 170.043 107.621 169.074 106.963C166.652 105.319 165.441 102.431 164.178 99.784C162.915 97.1373 161.25 94.3457 158.495 93.3819C157.862 93.1583 156.981 93.1402 156.696 93.7535C156.6 94.0095 156.584 94.2889 156.651 94.5541C156.917 95.962 157.923 97.092 158.792 98.225C160.254 100.134 161.48 102.47 161.126 104.857C160.711 107.682 158.189 109.875 157.886 112.712C157.753 113.963 158.071 115.22 158.068 116.477C158.068 117.262 157.944 118.057 158.113 118.821C158.293 119.402 158.507 119.972 158.752 120.528C159.025 121.441 159.166 122.388 159.17 123.341C159.384 127.345 159.597 131.35 159.809 135.356C159.969 138.344 159.315 141.293 158.655 144.233C157.837 145.976 157.202 147.798 156.76 149.671C156.015 152.943 155.994 156.43 157.063 159.614C157.635 161.345 158.513 162.968 158.982 164.729C158.982 164.769 159 164.805 159.01 164.841C159.055 165.216 159.106 165.59 159.176 165.962C159.262 166.391 159.374 166.815 159.512 167.231C159.65 167.947 159.873 168.644 160.178 169.307C160.603 170.148 161.226 170.874 161.995 171.421C161.559 172.273 160.854 172.959 160.384 173.793C159.567 175.237 159.533 177.011 159.83 178.648C160.402 181.809 162.113 184.633 164.372 186.93C164.271 186.924 164.17 186.924 164.069 186.93C163.33 187.011 162.621 187.265 161.998 187.67C157.217 190.458 154.483 196.432 155.482 201.9C155.679 202.97 156.021 204.051 156.736 204.864C157.331 205.511 158.095 205.979 158.943 206.214C159.472 206.373 160.018 206.475 160.569 206.517C164.296 206.819 167.905 205.094 171.642 204.949C172.88 204.929 174.119 204.987 175.351 205.121C177.149 205.27 178.952 205.364 180.758 205.405C183.692 205.474 185.346 204.695 187.22 202.504C187.68 201.961 188.064 201.357 188.361 200.71C189.954 200.619 191.713 200.48 192.988 200.374L193.006 200.553C193.076 201.157 193.182 201.852 193.666 202.235C193.94 202.42 194.249 202.546 194.574 202.604C197.636 203.356 200.733 204.115 203.882 204.115C205.361 204.084 206.837 203.97 208.303 203.773L213.844 203.136C215.456 203.343 217.048 203.689 218.6 204.169C220.199 204.713 221.695 205.52 223.257 206.154C226.89 207.625 230.802 208.151 234.675 208.665C235.335 208.752 236.092 208.813 236.583 208.363C237.212 207.758 237 206.746 236.825 205.9C236.752 205.556 236.698 205.205 236.652 204.855C239.266 205.54 241.823 206.426 244.301 207.505L244.737 207.695C244.861 208.354 245.472 208.882 246.057 209.592C246.248 209.891 246.473 210.168 246.726 210.417C247.014 210.607 247.343 210.726 247.686 210.764C251.778 211.525 255.956 211.713 260.1 211.323C260.947 211.208 261.805 211.179 262.658 211.236C263.285 211.321 263.903 211.46 264.505 211.653L268.011 212.653C270.594 213.393 273.244 214.139 275.923 213.973C276.467 213.938 277.008 213.86 277.54 213.74C279.66 213.251 281.637 212.067 282.654 210.163C284.02 207.574 283.357 204.393 282.578 201.565ZM179.735 154.309C179.627 155.619 179.285 156.899 178.724 158.089C178.348 158.847 177.864 159.545 177.513 160.306C177.18 160.995 176.931 162.297 176.783 163.726C176.601 163.696 176.417 163.669 176.235 163.648C176.504 162.705 176.707 161.738 176.977 160.793C177.616 158.545 178.666 156.421 179.735 154.309Z" fill="url(#paint0_linear)"/>
<path d="M184.401 200.777C183.762 199.326 183.156 197.659 183.795 196.208C184.212 195.354 184.929 194.683 185.809 194.32C186.68 193.966 187.598 193.74 188.534 193.649C191.472 193.265 194.445 193.224 197.393 193.529C197.608 195.227 197.154 196.949 196.763 198.589C196.409 200.1 196.206 200.323 194.644 200.402C193.633 200.456 184.64 201.311 184.401 200.777Z" fill="#FBBEBE"/>
<path d="M211.364 190.992C235.277 190.992 254.662 185.582 254.662 178.907C254.662 172.233 235.277 166.822 211.364 166.822C187.452 166.822 168.066 172.233 168.066 178.907C168.066 185.582 187.452 190.992 211.364 190.992Z" fill="#464353"/>
<path opacity="0.1" d="M211.364 190.992C235.277 190.992 254.662 185.582 254.662 178.907C254.662 172.233 235.277 166.822 211.364 166.822C187.452 166.822 168.066 172.233 168.066 178.907C168.066 185.582 187.452 190.992 211.364 190.992Z" fill="black"/>
<path d="M219.127 115.111C217.643 117.973 215.178 120.207 212.181 121.408C210.417 122.049 208.56 122.402 206.683 122.453C204.627 122.547 202.528 122.414 200.597 121.713C198.005 120.776 195.852 118.861 194.238 116.628C192.624 114.395 191.513 111.845 190.547 109.274C190.039 107.936 189.554 106.51 189.793 105.096C191.353 104.742 193.06 104.223 193.866 102.842C194.553 101.657 194.362 100.237 193.966 98.884C193.854 98.5002 193.724 98.1196 193.593 97.754C193.291 96.8778 192.246 95.2131 192.973 94.4638C193.436 93.9895 195.377 93.7478 196.046 93.4396C198.108 92.4909 200.009 91.1193 202.274 90.6691C204.233 90.2794 206.256 90.6449 208.212 91.0498C208.471 91.0874 208.72 91.1768 208.944 91.3126C209.2 91.5275 209.389 91.8104 209.489 92.1284C210.047 93.4819 210.374 94.9774 210.822 96.3884C211.288 97.8658 211.887 99.2525 213.011 100.301C213.886 101.12 215 101.633 216.09 102.132L218.773 103.358C219.25 103.537 219.683 103.816 220.041 104.177C220.392 104.658 220.602 105.227 220.647 105.821C221.128 109 220.596 112.25 219.127 115.111Z" fill="#FBBEBE"/>
<path opacity="0.1" d="M210.81 96.3884C208.674 98.6049 205.863 100.052 202.815 100.504C199.767 100.955 196.655 100.386 193.966 98.884C193.854 98.5003 193.724 98.1196 193.594 97.754C193.291 96.8778 192.246 95.2131 192.973 94.4638C193.436 93.9895 195.377 93.7478 196.046 93.4396C198.108 92.4909 200.01 91.1193 202.274 90.6691C204.233 90.2794 206.256 90.6449 208.212 91.0498C208.471 91.0874 208.721 91.1768 208.945 91.3126C209.2 91.5275 209.389 91.8104 209.49 92.1284C210.035 93.4819 210.362 94.9774 210.81 96.3884Z" fill="black"/>
<path d="M200.766 100.053C208.458 100.053 214.694 93.8303 214.694 86.1547C214.694 78.4791 208.458 72.2568 200.766 72.2568C193.074 72.2568 186.838 78.4791 186.838 86.1547C186.838 93.8303 193.074 100.053 200.766 100.053Z" fill="#FBBEBE"/>
<path d="M243.202 131.26L242.058 124.341C241.48 120.869 240.883 117.332 239.266 114.205C238.203 112.156 236.517 110.204 234.243 109.799C233.795 109.76 233.355 109.658 232.935 109.497C232.269 109.177 231.905 108.458 231.394 107.926C230.074 106.561 227.924 106.54 226.156 105.845C224.593 105.24 223.316 104.077 221.892 103.189C220.469 102.301 218.698 101.678 217.124 102.246C216.869 104.95 216.6 107.715 215.449 110.177C214.7 111.78 213.602 113.196 212.234 114.321C210.866 115.446 209.264 116.251 207.544 116.679C205.824 117.106 204.03 117.145 202.294 116.791C200.557 116.438 198.921 115.702 197.506 114.637C194.809 112.609 193.08 109.482 192.274 106.21C192.077 105.413 191.853 104.497 191.118 104.132C190.321 103.733 189.364 104.216 188.695 104.802C187.469 105.887 186.494 107.44 184.901 107.805C184.326 107.938 183.69 107.911 183.212 108.259C182.894 108.551 182.628 108.896 182.425 109.277C182.076 109.768 181.611 110.165 181.07 110.432C180.529 110.699 179.93 110.827 179.327 110.806C178.773 110.778 178.116 110.651 177.738 111.053C177.456 111.355 177.435 111.827 177.132 112.108C176.723 112.504 176.06 112.31 175.491 112.289C174.413 112.244 173.411 112.933 172.793 113.8C172.175 114.667 171.885 115.739 171.582 116.779C174.891 124.132 177.919 131.495 181.229 138.849C181.384 139.126 181.466 139.438 181.468 139.755C181.402 140.085 181.261 140.395 181.056 140.662C179.433 143.263 179.485 146.535 179.663 149.593C179.842 152.65 180.06 155.88 178.691 158.62C178.319 159.373 177.834 160.061 177.48 160.814C176.651 162.518 176.351 167.968 176.835 169.799H245.264C243.959 166.219 244.456 159.034 244.728 155.233C244.919 152.575 244.426 149.919 244.214 147.26C243.769 141.831 244.102 136.68 243.202 131.26Z" fill="#F86D70"/>
<path d="M246.705 167.684C247.713 167.3 248.824 167.439 249.905 167.584C253.384 168.059 256.915 168.545 260.139 169.932C261.653 170.578 263.094 171.442 264.118 172.714C265.026 173.859 265.556 175.261 266.059 176.642L267.221 179.811C267.663 181.02 268.112 182.253 268.236 183.537C268.599 187.34 265.992 190.927 262.713 192.903C259.434 194.878 255.573 195.582 251.813 196.32C248.052 197.057 244.276 197.873 240.531 198.737C238.784 199.189 237.012 199.537 235.223 199.779C231.214 200.232 227.024 199.564 223.215 200.888C221.701 201.416 220.214 202.202 218.643 202.568C217.601 202.796 216.546 202.965 215.485 203.075L208.276 203.897C206.81 204.093 205.334 204.206 203.855 204.235C200.706 204.235 197.608 203.492 194.55 202.749C194.225 202.692 193.916 202.567 193.642 202.383C193.158 202.003 193.052 201.329 192.982 200.719C192.673 198.018 192.403 195.313 192.171 192.606C192.098 191.727 192.043 190.776 192.525 190.035C193.13 189.129 194.311 188.845 195.389 188.67C199.96 187.924 204.59 187.603 209.22 187.712C210.979 185.957 213.88 185.948 216.184 184.993C217.032 184.604 217.852 184.159 218.64 183.66C222.76 181.262 227.364 179.81 232.117 179.409C233.048 179.381 233.973 179.249 234.875 179.017C236.658 178.464 238.284 176.959 240.116 177.328C240.343 176.702 240.501 175.866 241.025 175.437C241.285 175.216 241.606 175.068 241.845 174.832C242.351 174.322 242.396 173.518 242.32 172.805C242.245 172.092 242.075 171.361 242.26 170.666C242.337 170.403 242.45 170.152 242.596 169.92C243.507 168.33 244.879 167.533 246.705 167.684Z" fill="#464353"/>
<path opacity="0.05" d="M246.705 167.684C247.713 167.3 248.824 167.439 249.905 167.584C253.384 168.059 256.915 168.545 260.139 169.932C261.653 170.578 263.094 171.442 264.118 172.714C265.026 173.859 265.556 175.261 266.059 176.642L267.221 179.811C267.663 181.02 268.112 182.253 268.236 183.537C268.599 187.34 265.992 190.927 262.713 192.903C259.434 194.878 255.573 195.582 251.813 196.32C248.052 197.057 244.276 197.873 240.531 198.737C238.784 199.189 237.012 199.537 235.223 199.779C231.214 200.232 227.024 199.564 223.215 200.888C221.701 201.416 220.214 202.202 218.643 202.568C217.601 202.796 216.546 202.965 215.485 203.075L208.276 203.897C206.81 204.093 205.334 204.206 203.855 204.235C200.706 204.235 197.608 203.492 194.55 202.749C194.225 202.692 193.916 202.567 193.642 202.383C193.158 202.003 193.052 201.329 192.982 200.719C192.673 198.018 192.403 195.313 192.171 192.606C192.098 191.727 192.043 190.776 192.525 190.035C193.13 189.129 194.311 188.845 195.389 188.67C199.96 187.924 204.59 187.603 209.22 187.712C210.979 185.957 213.88 185.948 216.184 184.993C217.032 184.604 217.852 184.159 218.64 183.66C222.76 181.262 227.364 179.81 232.117 179.409C233.048 179.381 233.973 179.249 234.875 179.017C236.658 178.464 238.284 176.959 240.116 177.328C240.343 176.702 240.501 175.866 241.025 175.437C241.285 175.216 241.606 175.068 241.845 174.832C242.351 174.322 242.396 173.518 242.32 172.805C242.245 172.092 242.075 171.361 242.26 170.666C242.337 170.403 242.45 170.152 242.596 169.92C243.507 168.33 244.879 167.533 246.705 167.684Z" fill="black"/>
<path d="M187.186 202.643C185.312 204.809 183.662 205.583 180.728 205.513C178.923 205.471 177.121 205.377 175.32 205.232C174.089 205.1 172.852 205.042 171.614 205.06C167.878 205.205 164.271 206.912 160.544 206.613C159.993 206.57 159.448 206.469 158.918 206.311C158.077 206.077 157.318 205.616 156.723 204.979C156.008 204.172 155.666 203.102 155.469 202.045C154.473 196.625 157.204 190.721 161.985 187.963C162.609 187.561 163.318 187.309 164.056 187.229C164.78 187.226 165.496 187.382 166.152 187.688L166.197 187.706C168.139 188.503 169.904 189.678 171.387 191.162C171.612 191.419 171.88 191.635 172.18 191.8C172.479 191.912 172.796 191.972 173.116 191.975L177.094 192.226C177.768 192.246 178.438 192.338 179.093 192.501C179.814 192.752 180.516 193.055 181.194 193.407C183.335 194.362 185.708 194.616 188.022 194.984C188.245 194.996 188.457 195.081 188.627 195.226C188.72 195.34 188.784 195.475 188.815 195.619C189.138 196.833 189.158 198.108 188.874 199.333C188.591 200.557 188.011 201.694 187.186 202.643Z" fill="#2A3042"/>
<path opacity="0.1" d="M166.185 187.706C164.641 189.177 163.302 190.847 162.203 192.673C160.44 195.686 159.332 199.036 158.951 202.504C158.807 203.769 158.796 205.046 158.918 206.314C158.077 206.079 157.317 205.617 156.723 204.979C156.008 204.172 155.666 203.102 155.469 202.045C154.473 196.625 157.204 190.721 161.985 187.963C162.609 187.561 163.318 187.309 164.056 187.229C164.78 187.226 165.496 187.382 166.152 187.688L166.185 187.706Z" fill="black"/>
<path d="M243.241 195.22C245.466 195.159 247.964 195.047 249.599 196.543C251.159 197.957 251.364 200.289 251.467 202.389L251.585 204.827C251.622 205.57 251.652 206.338 251.352 207.027C250.819 208.235 249.357 208.818 248.022 208.749C246.686 208.679 245.46 208.096 244.24 207.571C240.927 206.146 237.478 205.062 233.945 204.335C234.06 202.649 234.252 200.971 234.521 199.301C234.705 198.144 234.736 196.208 235.511 195.247C236.331 194.232 237.4 194.781 238.514 194.969C240.078 195.207 241.661 195.291 243.241 195.22Z" fill="#FBBEBE"/>
<path d="M184.435 170.723C184.435 171.025 183.959 170.723 183.917 170.4C183.584 167.956 181.64 165.941 179.375 164.962C177.11 163.983 174.531 163.932 172.078 164.164C168.369 164.515 164.221 165.932 162.849 169.391C162.528 170.201 162.383 171.077 161.989 171.853C161.553 172.705 160.842 173.385 160.369 174.213C159.555 175.645 159.522 177.4 159.815 179.02C160.606 183.34 163.567 187.035 167.155 189.594C170.743 192.153 174.936 193.682 179.118 195.06C190.174 198.698 201.518 201.402 213.029 203.142C214.895 203.423 216.778 203.682 218.564 204.281C220.163 204.815 221.659 205.616 223.221 206.244C226.855 207.701 230.763 208.22 234.636 208.731C235.296 208.816 236.053 208.876 236.541 208.429C237.17 207.846 236.961 206.831 236.783 205.994C236.125 202.814 236.674 199.505 238.324 196.706C238.972 195.619 239.814 194.504 239.693 193.244C239.547 191.776 238.082 190.736 236.622 190.501C235.163 190.265 233.679 190.612 232.214 190.803C231.708 190.869 231.157 190.912 230.7 190.655C230.482 190.508 230.285 190.333 230.112 190.135C229.103 189.163 227.811 188.535 226.422 188.342C225.032 188.148 223.617 188.398 222.379 189.056C221.837 189.359 221.017 188.685 220.454 188.431L214.092 185.552C206.777 182.25 199.425 178.932 191.686 176.841C191.069 176.72 190.482 176.477 189.96 176.125C189.576 175.823 189.3 175.412 188.946 175.077C188.174 174.349 187.099 174.059 186.173 173.542C185.246 173.026 184.217 171.76 184.435 170.723Z" fill="#464353"/>
<path d="M282.593 210.208C281.575 212.091 279.601 213.263 277.482 213.746C276.95 213.866 276.409 213.943 275.865 213.976C273.185 214.142 270.539 213.402 267.956 212.671L264.45 211.68C263.847 211.491 263.229 211.353 262.603 211.269C261.75 211.212 260.894 211.241 260.047 211.357C255.903 211.741 251.726 211.554 247.633 210.801C247.291 210.764 246.962 210.647 246.673 210.459C246.421 210.212 246.196 209.937 246.004 209.64C245.05 208.495 244.024 207.828 245.153 206.317C245.804 205.441 247.013 205.003 247.518 203.997C248.024 202.991 247.7 201.562 247.4 200.522C246.991 199.087 245.647 198.468 245.166 197.151C244.805 196.157 245.411 195.002 246.322 194.462C247.234 193.921 248.36 193.879 249.411 194.017C250.461 194.156 251.491 194.453 252.547 194.534C255.654 194.782 258.83 193.184 261.813 194.084C262.47 194.283 263.09 194.601 263.756 194.776C265.055 195.066 266.412 194.949 267.641 194.44C268.077 194.277 268.504 194.081 268.928 193.888C269.745 193.463 270.616 193.149 271.517 192.954C274.426 192.455 277.124 194.465 279.319 196.425C280.073 197.049 280.74 197.771 281.303 198.571C281.908 199.513 282.229 200.61 282.514 201.692C283.316 204.492 283.979 207.64 282.593 210.208Z" fill="#2A3042"/>
<path opacity="0.1" d="M282.594 210.208C281.577 212.09 279.602 213.262 277.483 213.746C278.307 212.147 278.679 210.355 278.558 208.561C278.376 205.688 277.111 202.981 275.497 200.594C274.504 199.125 273.375 197.752 272.124 196.494C271.161 195.528 269.977 194.76 268.941 193.875C269.759 193.45 270.63 193.136 271.53 192.941C274.44 192.443 277.138 194.452 279.333 196.413C280.086 197.037 280.753 197.758 281.316 198.558C281.922 199.5 282.243 200.597 282.527 201.679C283.318 204.492 283.981 207.64 282.594 210.208Z" fill="black"/>
<path d="M191.143 63.598C190.126 64.3322 189.43 65.3866 188.721 66.3988C187.416 68.2689 185.939 70.1361 183.852 71.1784C183.062 71.5742 182.16 71.8733 181.636 72.5622C181.325 73.028 181.123 73.5578 181.046 74.1121C180.646 76.0612 180.437 78.0444 180.422 80.0338C180.422 81.0248 180.464 82.046 180.903 82.9463C181.318 83.7923 182.066 84.5083 182.22 85.4298C182.338 86.1488 182.072 86.8649 181.978 87.587C181.884 88.3091 182.048 89.1641 182.717 89.5085C183.078 89.6438 183.454 89.7322 183.837 89.7714C185.851 90.2185 186.526 92.5751 186.832 94.5238C187.516 94.4845 187.825 93.702 187.967 93.0645L190.065 83.756C190.293 82.7469 190.671 81.5777 191.679 81.2242C192.355 80.9915 193.093 81.2091 193.799 81.2695C196.569 81.4961 198.913 79.36 201.623 78.7709C202.49 78.5972 203.377 78.5393 204.26 78.5987C206.398 78.7044 208.883 79.5806 209.338 81.5716C209.413 81.8949 209.459 82.2816 209.762 82.4417C210.064 82.6019 210.367 82.4659 210.7 82.4417C212.057 82.3058 212.856 83.8285 213.247 85.0733L214.67 89.6052C214.882 90.291 215.239 91.0977 215.984 91.1853C216.671 91.2699 217.255 90.6203 217.358 89.9768C217.461 89.3333 217.237 88.6656 217.089 88.019C216.42 85.0431 217.443 81.9976 218.067 79.0156C218.691 76.0336 218.803 72.6075 216.71 70.3113C215.95 69.4805 214.951 68.8611 214.243 67.9849C213.583 67.1631 213.21 66.154 212.526 65.3474C210.634 63.1207 205.78 61.4016 202.804 61.1176C199.415 60.746 193.893 61.607 191.143 63.598Z" fill="#2A3042"/>
<g opacity="0.1">
<path opacity="0.1" d="M215.996 89.0663C215.251 88.9757 214.894 88.16 214.682 87.4862C214.207 85.9736 213.733 84.4629 213.258 82.9543C212.868 81.7065 212.069 80.1838 210.712 80.3228C210.409 80.356 210.052 80.4799 209.773 80.3228C209.495 80.1657 209.425 79.7759 209.35 79.4526C208.895 77.4586 206.41 76.5855 204.272 76.4797C203.389 76.4219 202.502 76.4798 201.635 76.6519C198.91 77.2562 196.581 79.3711 193.811 79.1505C193.096 79.0931 192.357 78.8756 191.691 79.1082C190.671 79.4587 190.304 80.6189 190.077 81.6401L187.979 90.9456C187.837 91.5861 187.528 92.3686 186.844 92.4048C186.541 90.4591 185.863 88.1026 183.849 87.6554C183.466 87.6133 183.09 87.5251 182.729 87.3925C182.465 87.249 182.259 87.0197 182.145 86.743C182.09 87.024 182.026 87.3049 181.99 87.5859C181.899 88.305 182.06 89.163 182.729 89.5074C183.089 89.6428 183.466 89.7311 183.849 89.7703C185.863 90.2174 186.538 92.574 186.844 94.5228C187.528 94.4835 187.837 93.701 187.979 93.0635L190.077 83.7549C190.304 82.7458 190.683 81.5766 191.691 81.2231C192.366 80.9905 193.105 81.208 193.811 81.2684C196.581 81.495 198.925 79.359 201.635 78.7698C202.498 78.5972 203.381 78.5393 204.26 78.5976C206.397 78.7034 208.883 79.5795 209.337 81.5706C209.413 81.8938 209.459 82.2806 209.761 82.4407C210.064 82.6008 210.367 82.4649 210.7 82.4407C212.056 82.3047 212.856 83.8274 213.246 85.0722C213.719 86.5849 214.193 88.0955 214.669 89.6041C214.881 90.2899 215.239 91.0966 215.984 91.1842C216.671 91.2688 217.255 90.6193 217.358 89.9757C217.405 89.4342 217.343 88.8889 217.176 88.3714C217.069 88.5894 216.9 88.7713 216.69 88.8947C216.48 89.0182 216.239 89.0778 215.996 89.0663Z" fill="black"/>
<path opacity="0.1" d="M182.224 83.3148C182.07 82.3933 181.316 81.6773 180.907 80.8313C180.644 80.2607 180.492 79.6456 180.459 79.0186C180.459 79.3569 180.429 79.6953 180.426 80.0367C180.426 81.0277 180.468 82.0489 180.907 82.9492C181.243 83.6351 181.797 84.2393 182.076 84.9372C182.223 84.4097 182.273 83.8601 182.224 83.3148Z" fill="black"/>
<path opacity="0.1" d="M218.081 76.8851C217.53 79.5196 216.67 82.2025 216.937 84.8431C217.109 82.8944 217.679 80.9336 218.081 79C218.417 77.5326 218.535 76.0241 218.432 74.5225C218.367 75.3167 218.249 76.1059 218.081 76.8851Z" fill="black"/>
</g>
<path d="M183.417 144.613C183.05 150.613 178.639 155.571 176.958 161.342C176.54 162.786 176.289 164.285 175.69 165.659C174.478 168.424 171.987 170.43 169.331 171.844C168.362 172.403 167.303 172.787 166.2 172.98C164.989 173.121 163.763 172.891 162.686 172.319C161.609 171.748 160.732 170.862 160.172 169.78C159.479 168.376 159.382 166.759 158.961 165.249C158.491 163.505 157.613 161.898 157.041 160.185C155.987 157.034 156.009 153.583 156.738 150.345C157.43 147.528 158.524 144.825 159.987 142.32C160.199 141.948 160.414 141.58 160.635 141.214C161.26 140.157 161.961 139.148 162.733 138.193C164.55 136.009 166.885 134.329 169.195 132.673C169.371 132.528 169.578 132.425 169.8 132.371H169.837C170.097 132.362 170.355 132.422 170.585 132.546C173.789 133.928 176.864 135.591 179.774 137.513C180.816 138.205 182.46 138.979 183.005 140.157C183.55 141.335 183.495 143.332 183.417 144.613Z" fill="#FBBEBE"/>
<path d="M171.397 117.002C171.102 117.311 170.873 117.676 170.725 118.075C168.277 123.579 166.832 129.474 166.456 135.484C166.462 135.777 166.395 136.067 166.259 136.327C166.125 136.499 165.976 136.66 165.814 136.807C165.666 136.981 165.556 137.184 165.491 137.402C165.425 137.621 165.405 137.85 165.431 138.077C165.458 138.303 165.531 138.522 165.646 138.719C165.76 138.917 165.915 139.088 166.098 139.224C166.598 138.284 167.794 137.979 168.857 137.898C173.947 137.496 178.918 139.858 184.023 139.68C183.663 138.438 183.145 137.245 182.851 135.988C181.552 130.408 184.792 124.332 182.806 118.957C182.409 117.882 181.746 116.824 180.702 116.353C180.269 116.179 179.817 116.059 179.354 115.996C178.064 115.764 175.497 114.77 174.249 115.169C173.789 115.317 173.607 115.749 173.226 116.008C172.66 116.38 171.891 116.51 171.397 117.002Z" fill="#F86D70"/>
<path opacity="0.1" d="M173.482 166.959C172.704 168.277 171.598 169.372 170.273 170.14C168.947 170.908 167.445 171.322 165.913 171.343C165.083 171.365 164.258 171.213 163.49 170.899C161.556 170.047 160.463 167.938 160.057 165.865C159.651 163.793 159.778 161.654 159.491 159.56C159.261 157.892 158.77 156.273 158.516 154.608C157.892 150.49 159.121 146.423 159.996 142.323C160.208 141.952 160.423 141.583 160.644 141.218C161.269 140.161 161.97 139.151 162.743 138.196C164.559 136.012 166.894 134.332 169.204 132.677H166.782C166.84 132.634 166.909 132.607 166.981 132.599C167.053 132.591 167.126 132.602 167.193 132.631C167.259 132.66 167.317 132.706 167.36 132.765C167.403 132.823 167.43 132.892 167.439 132.964C167.678 135.078 170.666 137.193 171.317 139.248C171.72 140.511 172.205 141.749 172.528 143.036C172.784 144.133 172.978 145.242 173.11 146.36C173.54 149.488 173.968 152.61 174.394 155.726C174.93 159.53 175.39 163.642 173.482 166.959Z" fill="black"/>
<path d="M169.474 127.29L172.396 118.144C172.832 116.776 173.274 115.386 173.326 113.948C173.377 112.51 172.999 111.002 171.991 109.975C171.173 109.144 170.041 108.715 169.072 108.065C166.649 106.437 165.438 103.585 164.176 100.959C162.913 98.3338 161.251 95.5875 158.495 94.6146C157.86 94.391 156.982 94.3729 156.697 94.9802C156.598 95.2326 156.583 95.5097 156.652 95.7718C156.918 97.1676 157.92 98.2824 158.792 99.3973C160.255 101.286 161.478 103.597 161.127 105.96C160.709 108.757 158.19 110.926 157.887 113.739C157.754 114.978 158.072 116.22 158.069 117.468C158.069 118.241 157.941 119.03 158.114 119.785C158.293 120.369 158.506 120.942 158.753 121.501C159.023 122.404 159.163 123.341 159.171 124.284L159.81 136.175C160.155 142.608 156.658 148.865 157.62 155.209C157.875 156.874 158.365 158.493 158.595 160.161C158.898 162.255 158.756 164.391 159.162 166.467C159.567 168.542 160.676 170.648 162.595 171.5C163.363 171.815 164.188 171.966 165.017 171.944C166.55 171.923 168.052 171.509 169.377 170.741C170.703 169.973 171.808 168.878 172.587 167.56C174.495 164.237 174.034 160.131 173.514 156.342L172.23 146.976C172.098 145.859 171.904 144.749 171.648 143.653C171.327 142.366 170.843 141.127 170.437 139.864C169.138 135.734 168.166 131.393 169.474 127.29Z" fill="#FBBEBE"/>
<path d="M247.252 127.999H184.558C183.225 127.999 182.145 129.077 182.145 130.407V168.493C182.145 169.823 183.225 170.901 184.558 170.901H247.252C248.585 170.901 249.665 169.823 249.665 168.493V130.407C249.665 129.077 248.585 127.999 247.252 127.999Z" fill="#2A3042"/>
<path opacity="0.2" d="M247.252 127.999H184.558C183.225 127.999 182.145 129.077 182.145 130.407V168.493C182.145 169.823 183.225 170.901 184.558 170.901H247.252C248.585 170.901 249.665 169.823 249.665 168.493V130.407C249.665 129.077 248.585 127.999 247.252 127.999Z" fill="black"/>
<path d="M215.754 151.263C216.758 151.263 217.571 150.452 217.571 149.45C217.571 148.449 216.758 147.638 215.754 147.638C214.751 147.638 213.938 148.449 213.938 149.45C213.938 150.452 214.751 151.263 215.754 151.263Z" fill="white"/>
<path d="M136.083 184.6H139.75C141.758 184.6 143.683 185.395 145.102 186.812C146.522 188.228 147.32 190.15 147.32 192.153V203.365H128.514V192.153C128.514 190.15 129.311 188.228 130.731 186.812C132.15 185.395 134.076 184.6 136.083 184.6Z" fill="#2A3042"/>
<path opacity="0.1" d="M136.083 184.6H139.75C141.758 184.6 143.683 185.395 145.102 186.812C146.522 188.228 147.32 190.15 147.32 192.153V203.365H128.514V192.153C128.514 190.15 129.311 188.228 130.731 186.812C132.15 185.395 134.076 184.6 136.083 184.6Z" fill="black"/>
<path d="M137.167 188.73C137.998 188.73 138.672 188.057 138.672 187.228C138.672 186.399 137.998 185.727 137.167 185.727C136.336 185.727 135.662 186.399 135.662 187.228C135.662 188.057 136.336 188.73 137.167 188.73Z" fill="#2A3042"/>
<path d="M137.167 186.854C137.998 186.854 138.672 186.181 138.672 185.352C138.672 184.523 137.998 183.851 137.167 183.851C136.336 183.851 135.662 184.523 135.662 185.352C135.662 186.181 136.336 186.854 137.167 186.854Z" fill="#2A3042"/>
<path d="M137.167 184.978C137.998 184.978 138.672 184.305 138.672 183.476C138.672 182.647 137.998 181.975 137.167 181.975C136.336 181.975 135.662 182.647 135.662 183.476C135.662 184.305 136.336 184.978 137.167 184.978Z" fill="#2A3042"/>
<path d="M137.167 183.102C137.998 183.102 138.672 182.43 138.672 181.6C138.672 180.771 137.998 180.099 137.167 180.099C136.336 180.099 135.662 180.771 135.662 181.6C135.662 182.43 136.336 183.102 137.167 183.102Z" fill="#2A3042"/>
<path d="M137.167 181.226C137.998 181.226 138.672 180.554 138.672 179.724C138.672 178.895 137.998 178.223 137.167 178.223C136.336 178.223 135.662 178.895 135.662 179.724C135.662 180.554 136.336 181.226 137.167 181.226Z" fill="#2A3042"/>
<path d="M137.167 179.349C137.998 179.349 138.672 178.677 138.672 177.847C138.672 177.018 137.998 176.346 137.167 176.346C136.336 176.346 135.662 177.018 135.662 177.847C135.662 178.677 136.336 179.349 137.167 179.349Z" fill="#2A3042"/>
<path d="M137.167 177.473C137.998 177.473 138.672 176.801 138.672 175.971C138.672 175.142 137.998 174.47 137.167 174.47C136.336 174.47 135.662 175.142 135.662 175.971C135.662 176.801 136.336 177.473 137.167 177.473Z" fill="#2A3042"/>
<path d="M139.423 178.222C140.254 178.222 140.928 177.55 140.928 176.72C140.928 175.891 140.254 175.219 139.423 175.219C138.592 175.219 137.918 175.891 137.918 176.72C137.918 177.55 138.592 178.222 139.423 178.222Z" fill="#2A3042"/>
<path d="M140.927 177.473C141.758 177.473 142.432 176.801 142.432 175.971C142.432 175.142 141.758 174.47 140.927 174.47C140.096 174.47 139.422 175.142 139.422 175.971C139.422 176.801 140.096 177.473 140.927 177.473Z" fill="#2A3042"/>
<path d="M142.433 176.72C143.264 176.72 143.937 176.048 143.937 175.218C143.937 174.389 143.264 173.717 142.433 173.717C141.601 173.717 140.928 174.389 140.928 175.218C140.928 176.048 141.601 176.72 142.433 176.72Z" fill="#2A3042"/>
<path d="M137.167 175.594C137.998 175.594 138.672 174.922 138.672 174.092C138.672 173.263 137.998 172.591 137.167 172.591C136.336 172.591 135.662 173.263 135.662 174.092C135.662 174.922 136.336 175.594 137.167 175.594Z" fill="#2A3042"/>
<path d="M137.167 173.717C137.998 173.717 138.672 173.045 138.672 172.215C138.672 171.386 137.998 170.714 137.167 170.714C136.336 170.714 135.662 171.386 135.662 172.215C135.662 173.045 136.336 173.717 137.167 173.717Z" fill="#2A3042"/>
<path d="M137.167 171.841C137.998 171.841 138.672 171.169 138.672 170.339C138.672 169.51 137.998 168.838 137.167 168.838C136.336 168.838 135.662 169.51 135.662 170.339C135.662 171.169 136.336 171.841 137.167 171.841Z" fill="#2A3042"/>
<path d="M137.167 169.965C137.998 169.965 138.672 169.293 138.672 168.463C138.672 167.634 137.998 166.962 137.167 166.962C136.336 166.962 135.662 167.634 135.662 168.463C135.662 169.293 136.336 169.965 137.167 169.965Z" fill="#2A3042"/>
<path d="M143.401 163.621C143.029 163.675 142.653 163.714 142.278 163.738C142.627 163.434 142.951 163.103 143.247 162.747C143.037 162.117 142.731 161.523 142.338 160.986C141.965 161.195 141.553 161.325 141.127 161.367C140.755 161.421 140.379 161.463 140.004 161.487C140.509 161.008 140.989 160.504 141.442 159.977C140.354 159 138.962 158.426 137.5 158.35C136.038 158.275 134.594 158.703 133.41 159.563C132.227 160.422 131.375 161.662 130.997 163.073C130.62 164.485 130.74 165.983 131.337 167.316C131.934 168.65 132.972 169.739 134.277 170.401C135.583 171.062 137.076 171.256 138.508 170.95C139.939 170.644 141.222 169.857 142.142 168.72C143.061 167.584 143.561 166.166 143.559 164.705C143.559 164.337 143.526 163.97 143.462 163.608L143.401 163.621Z" fill="#001EC8"/>
<path d="M148.431 171.08C148.047 171.314 147.614 171.459 147.165 171.503C146.793 171.557 146.418 171.596 146.042 171.62C146.441 171.263 146.814 170.878 147.156 170.466C146.249 170.23 145.286 170.34 144.456 170.775C143.626 171.21 142.988 171.938 142.667 172.817C142.346 173.696 142.365 174.663 142.721 175.529C143.077 176.394 143.743 177.097 144.59 177.498C145.437 177.9 146.403 177.971 147.3 177.7C148.198 177.428 148.961 176.832 149.441 176.028C149.921 175.225 150.084 174.271 149.897 173.354C149.71 172.438 149.188 171.623 148.431 171.071V171.08Z" fill="#001EC8"/>
<path d="M134.907 178.222C135.738 178.222 136.412 177.55 136.412 176.72C136.412 175.891 135.738 175.219 134.907 175.219C134.076 175.219 133.402 175.891 133.402 176.72C133.402 177.55 134.076 178.222 134.907 178.222Z" fill="#2A3042"/>
<path d="M133.403 177.473C134.234 177.473 134.908 176.801 134.908 175.971C134.908 175.142 134.234 174.47 133.403 174.47C132.572 174.47 131.898 175.142 131.898 175.971C131.898 176.801 132.572 177.473 133.403 177.473Z" fill="#2A3042"/>
<path d="M131.897 176.72C132.729 176.72 133.402 176.048 133.402 175.218C133.402 174.389 132.729 173.717 131.897 173.717C131.066 173.717 130.393 174.389 130.393 175.218C130.393 176.048 131.066 176.72 131.897 176.72Z" fill="#2A3042"/>
<path d="M125.901 171.08C126.285 171.315 126.718 171.46 127.167 171.503C127.539 171.557 127.915 171.596 128.29 171.62C127.89 171.264 127.518 170.878 127.176 170.466C128.083 170.23 129.046 170.34 129.876 170.775C130.706 171.21 131.344 171.938 131.665 172.817C131.986 173.696 131.967 174.663 131.611 175.529C131.256 176.394 130.589 177.097 129.742 177.498C128.895 177.9 127.929 177.971 127.032 177.7C126.134 177.428 125.371 176.832 124.891 176.028C124.411 175.225 124.248 174.271 124.435 173.354C124.622 172.438 125.144 171.623 125.901 171.071V171.08Z" fill="#001EC8"/>
<path d="M136.083 185.727H139.75C141.758 185.727 143.683 186.522 145.102 187.939C146.522 189.355 147.32 191.277 147.32 193.28V203.211C147.32 203.55 147.184 203.876 146.943 204.117C146.703 204.357 146.376 204.492 146.036 204.492H129.797C129.457 204.492 129.13 204.357 128.89 204.117C128.649 203.876 128.514 203.55 128.514 203.211V193.28C128.514 191.277 129.311 189.355 130.731 187.939C132.15 186.522 134.076 185.727 136.083 185.727Z" fill="#2A3042"/>
<g opacity="0.1">
<path opacity="0.1" d="M143.516 164.031C143.363 164.194 143.202 164.347 143.031 164.49C143.204 164.49 143.373 164.463 143.546 164.445C143.54 164.306 143.531 164.167 143.516 164.031Z" fill="black"/>
<path opacity="0.1" d="M140.773 162.236C141.152 162.212 141.524 162.173 141.9 162.118C142.237 162.076 142.566 161.986 142.878 161.852C142.725 161.55 142.549 161.261 142.351 160.985C142.163 161.1 141.959 161.186 141.745 161.242C141.448 161.599 141.123 161.931 140.773 162.236Z" fill="black"/>
<path opacity="0.1" d="M131.522 165.46C131.52 164.314 131.827 163.189 132.412 162.204C132.997 161.218 133.837 160.408 134.844 159.858C135.852 159.309 136.989 159.041 138.136 159.083C139.283 159.124 140.398 159.473 141.363 160.094L141.46 159.991C140.83 159.432 140.096 159.003 139.299 158.728C138.502 158.454 137.659 158.339 136.818 158.391C135.976 158.443 135.154 158.661 134.397 159.032C133.64 159.402 132.965 159.919 132.409 160.551C131.853 161.184 131.429 161.919 131.159 162.716C130.89 163.513 130.781 164.356 130.84 165.195C130.898 166.034 131.122 166.853 131.499 167.605C131.876 168.357 132.398 169.028 133.036 169.578C132.057 168.428 131.52 166.968 131.522 165.46Z" fill="black"/>
</g>
<g opacity="0.1">
<path opacity="0.1" d="M146.041 172.37C146.416 172.346 146.792 172.307 147.164 172.253C147.613 172.21 148.046 172.066 148.43 171.83C148.855 172.142 149.21 172.54 149.47 172.998C149.731 173.456 149.893 173.964 149.944 174.488C149.959 174.357 149.966 174.225 149.965 174.093C149.968 173.506 149.832 172.927 149.569 172.402C149.306 171.877 148.923 171.421 148.451 171.071C148.067 171.306 147.634 171.451 147.186 171.494L146.883 171.531C146.624 171.832 146.343 172.113 146.041 172.37Z" fill="black"/>
<path opacity="0.1" d="M146.192 171.089C146.318 171.091 146.443 171.1 146.568 171.116C146.764 170.908 146.958 170.684 147.155 170.467C146.598 170.318 146.015 170.3 145.45 170.413C144.885 170.525 144.354 170.766 143.897 171.117C143.44 171.467 143.071 171.918 142.816 172.434C142.562 172.95 142.431 173.517 142.432 174.092C142.432 174.219 142.432 174.343 142.45 174.467C142.543 173.541 142.977 172.683 143.669 172.059C144.36 171.435 145.26 171.089 146.192 171.089Z" fill="black"/>
</g>
<g opacity="0.1">
<path opacity="0.1" d="M128.289 172.37C127.914 172.346 127.538 172.307 127.166 172.253C126.717 172.211 126.284 172.066 125.9 171.83C125.475 172.142 125.121 172.54 124.86 172.998C124.599 173.456 124.438 173.964 124.386 174.488C124.372 174.357 124.365 174.225 124.365 174.093C124.362 173.506 124.498 172.927 124.761 172.402C125.024 171.877 125.407 171.421 125.879 171.071C126.263 171.307 126.696 171.451 127.145 171.494L127.448 171.531C127.704 171.833 127.986 172.114 128.289 172.37Z" fill="black"/>
<path opacity="0.1" d="M128.139 171.089C128.012 171.091 127.886 171.1 127.76 171.116C127.566 170.908 127.373 170.684 127.176 170.467C127.732 170.318 128.316 170.3 128.881 170.413C129.446 170.525 129.977 170.766 130.434 171.117C130.891 171.467 131.26 171.918 131.514 172.434C131.768 172.95 131.9 173.517 131.899 174.092C131.899 174.219 131.899 174.343 131.881 174.467C131.788 173.541 131.353 172.683 130.662 172.059C129.97 171.435 129.071 171.089 128.139 171.089Z" fill="black"/>
</g>
<path d="M116.302 54.2773H47.873V80.8646H116.302V54.2773Z" fill="#001EC8"/>
<path d="M156.572 54.2773H51.5064C49.4998 54.2773 47.873 55.9005 47.873 57.9029V77.239C47.873 79.2414 49.4998 80.8646 51.5064 80.8646H156.572C158.579 80.8646 160.206 79.2414 160.206 77.239V57.9029C160.206 55.9005 158.579 54.2773 156.572 54.2773Z" stroke="#2A3042" stroke-width="9" stroke-miterlimit="10"/>
<path d="M109.416 66.1484C109.194 65.0364 108.632 64.0204 107.807 63.2412C106.981 62.462 105.933 61.9581 104.808 61.7991C103.683 61.6402 102.537 61.8341 101.527 62.354C100.517 62.874 99.6944 63.6942 99.1724 64.7012C98.0543 64.8189 97.0243 65.3607 96.2952 66.2146C95.566 67.0685 95.1935 68.1692 95.2545 69.2894C95.3155 70.4095 95.8055 71.4635 96.6231 72.2335C97.4407 73.0035 98.5235 73.4306 99.6477 73.4267H109.161C110.133 73.4243 111.064 73.0369 111.75 72.3497C112.436 71.6625 112.82 70.7317 112.819 69.7619C112.823 68.8394 112.472 67.9506 111.839 67.2784C111.206 66.6062 110.338 66.2018 109.416 66.1484ZM105.21 68.3026V71.0761H102.866V68.3026H100.38L104.038 64.6499L107.696 68.3026H105.21Z" fill="white"/>
<defs>
<linearGradient id="paint0_linear" x1="219.345" y1="213.997" x2="219.345" y2="59.4137" gradientUnits="userSpaceOnUse">
<stop stop-color="#808080" stop-opacity="0.25"/>
<stop offset="0.54" stop-color="#808080" stop-opacity="0.12"/>
<stop offset="1" stop-color="#808080" stop-opacity="0.1"/>
</linearGradient>
</defs>
</svg>
