<svg width="461" height="329" viewBox="0 0 461 329" fill="none" xmlns="http://www.w3.org/2000/svg">
<g clip-path="url(#clip0)">
<path d="M21.3067 66.9862C25.3636 66.9862 28.6524 63.699 28.6524 59.644C28.6524 55.589 25.3636 52.3018 21.3067 52.3018C17.2497 52.3018 13.9609 55.589 13.9609 59.644C13.9609 63.699 17.2497 66.9862 21.3067 66.9862Z" fill="#D6D6D6"/>
<path d="M43.3438 66.9862C47.4007 66.9862 50.6896 63.699 50.6896 59.644C50.6896 55.589 47.4007 52.3018 43.3438 52.3018C39.2869 52.3018 35.998 55.589 35.998 59.644C35.998 63.699 39.2869 66.9862 43.3438 66.9862Z" fill="#D6D6D6"/>
<path d="M65.3809 66.9862C69.4379 66.9862 72.7267 63.699 72.7267 59.644C72.7267 55.589 69.4379 52.3018 65.3809 52.3018C61.324 52.3018 58.0352 55.589 58.0352 59.644C58.0352 63.699 61.324 66.9862 65.3809 66.9862Z" fill="#D6D6D6"/>
<path d="M87.418 66.9862C91.475 66.9862 94.7638 63.699 94.7638 59.644C94.7638 55.589 91.475 52.3018 87.418 52.3018C83.3611 52.3018 80.0723 55.589 80.0723 59.644C80.0723 63.699 83.3611 66.9862 87.418 66.9862Z" fill="#D6D6D6"/>
<path d="M109.455 66.9862C113.512 66.9862 116.801 63.699 116.801 59.644C116.801 55.589 113.512 52.3018 109.455 52.3018C105.398 52.3018 102.109 55.589 102.109 59.644C102.109 63.699 105.398 66.9862 109.455 66.9862Z" fill="#D6D6D6"/>
<path d="M131.492 66.9862C135.549 66.9862 138.838 63.699 138.838 59.644C138.838 55.589 135.549 52.3018 131.492 52.3018C127.435 52.3018 124.146 55.589 124.146 59.644C124.146 63.699 127.435 66.9862 131.492 66.9862Z" fill="#D6D6D6"/>
<path d="M153.529 66.9862C157.586 66.9862 160.875 63.699 160.875 59.644C160.875 55.589 157.586 52.3018 153.529 52.3018C149.472 52.3018 146.184 55.589 146.184 59.644C146.184 63.699 149.472 66.9862 153.529 66.9862Z" fill="#D6D6D6"/>
<path d="M170.504 68.5853H4.33113C3.53859 68.5844 2.77878 68.2693 2.21838 67.7092C1.65797 67.149 1.34273 66.3896 1.3418 65.5974V53.691C1.34273 52.8989 1.65797 52.1394 2.21838 51.5793C2.77878 51.0192 3.53859 50.7041 4.33113 50.7031H170.504C171.296 50.7041 172.056 51.0192 172.617 51.5793C173.177 52.1394 173.492 52.8989 173.493 53.691V65.5974C173.492 66.3896 173.177 67.149 172.617 67.7092C172.056 68.2693 171.296 68.5844 170.504 68.5853ZM4.33113 51.8983C3.8556 51.8988 3.39969 52.0879 3.06344 52.424C2.72718 52.76 2.53805 53.2157 2.53753 53.691V65.5974C2.53805 66.0727 2.72718 66.5284 3.06344 66.8645C3.39969 67.2006 3.8556 67.3897 4.33113 67.3902H170.504C170.979 67.3897 171.435 67.2006 171.772 66.8645C172.108 66.5284 172.297 66.0727 172.297 65.5974V53.691C172.297 53.2157 172.108 52.76 171.772 52.4239C171.435 52.0879 170.979 51.8988 170.504 51.8983L4.33113 51.8983Z" fill="#D6D6D6"/>
<path d="M39.894 1.71673C40.3493 1.71725 40.7859 1.89829 41.1079 2.22012C41.4299 2.54195 41.611 2.9783 41.6115 3.43344V40.6347C41.611 41.0898 41.4299 41.5262 41.1079 41.848C40.7859 42.1698 40.3493 42.3509 39.894 42.3514H3.43512C2.97976 42.3509 2.5432 42.1698 2.22122 41.848C1.89923 41.5262 1.71811 41.0898 1.71759 40.6347V3.43347C1.71811 2.97833 1.89923 2.54198 2.22122 2.22015C2.5432 1.89831 2.97976 1.71728 3.43512 1.71676H39.894V1.71673ZM39.894 2.46579e-05H3.43512C2.52407 2.46579e-05 1.65034 0.361763 1.00613 1.00566C0.36192 1.64956 0 2.52288 0 3.43349V40.6347C0 41.5453 0.36192 42.4186 1.00613 43.0625C1.65034 43.7064 2.52407 44.0681 3.43512 44.0681H39.894C40.805 44.0681 41.6788 43.7064 42.323 43.0625C42.9672 42.4186 43.3291 41.5453 43.3291 40.6347V3.43347C43.3291 2.52286 42.9672 1.64954 42.323 1.00564C41.6788 0.361738 40.805 1.42861e-06 39.894 0V2.46579e-05Z" fill="#D6D6D6"/>
<path d="M34.2067 11.495H9.88163C9.76841 11.4957 9.65617 11.4741 9.55137 11.4312C9.44657 11.3884 9.35128 11.3253 9.27098 11.2455C9.19067 11.1657 9.12694 11.0709 9.08345 10.9664C9.03997 10.8619 9.01758 10.7499 9.01758 10.6367C9.01758 10.5235 9.03997 10.4115 9.08345 10.307C9.12694 10.2025 9.19067 10.1076 9.27098 10.0279C9.35128 9.9481 9.44657 9.88498 9.55137 9.84216C9.65617 9.79933 9.76841 9.77764 9.88163 9.77834H34.2067C34.3199 9.77764 34.4322 9.79933 34.537 9.84216C34.6418 9.88498 34.737 9.9481 34.8174 10.0279C34.8977 10.1076 34.9614 10.2025 35.0049 10.307C35.0484 10.4115 35.0708 10.5235 35.0708 10.6367C35.0708 10.7499 35.0484 10.8619 35.0049 10.9664C34.9614 11.0709 34.8977 11.1657 34.8174 11.2455C34.737 11.3253 34.6418 11.3884 34.537 11.4312C34.4322 11.4741 34.3199 11.4957 34.2067 11.495Z" fill="#001EC8"/>
<path d="M34.2067 17.5741H9.88163C9.76841 17.5748 9.65617 17.5531 9.55137 17.5103C9.44657 17.4675 9.35128 17.4044 9.27098 17.3246C9.19067 17.2448 9.12694 17.15 9.08345 17.0455C9.03997 16.941 9.01758 16.829 9.01758 16.7158C9.01758 16.6026 9.03997 16.4906 9.08345 16.3861C9.12694 16.2816 9.19067 16.1868 9.27098 16.107C9.35128 16.0272 9.44657 15.9641 9.55137 15.9213C9.65617 15.8784 9.76841 15.8567 9.88163 15.8574H34.2067C34.3199 15.8567 34.4322 15.8784 34.537 15.9213C34.6418 15.9641 34.737 16.0272 34.8174 16.107C34.8977 16.1868 34.9614 16.2816 35.0049 16.3861C35.0484 16.4906 35.0708 16.6026 35.0708 16.7158C35.0708 16.829 35.0484 16.941 35.0049 17.0455C34.9614 17.15 34.8977 17.2448 34.8174 17.3246C34.737 17.4044 34.6418 17.4675 34.537 17.5103C34.4322 17.5531 34.3199 17.5748 34.2067 17.5741Z" fill="#001EC8"/>
<path d="M34.2067 23.6523H9.88163C9.76841 23.653 9.65617 23.6313 9.55137 23.5884C9.44657 23.5456 9.35128 23.4825 9.27098 23.4027C9.19067 23.323 9.12694 23.2281 9.08345 23.1236C9.03997 23.0191 9.01758 22.9071 9.01758 22.7939C9.01758 22.6807 9.03997 22.5687 9.08345 22.4642C9.12694 22.3597 9.19067 22.2649 9.27098 22.1851C9.35128 22.1053 9.44657 22.0422 9.55137 21.9994C9.65617 21.9566 9.76841 21.9349 9.88163 21.9356H34.2067C34.3199 21.9349 34.4322 21.9566 34.537 21.9994C34.6418 22.0422 34.737 22.1053 34.8174 22.1851C34.8977 22.2649 34.9614 22.3597 35.0049 22.4642C35.0484 22.5687 35.0708 22.6807 35.0708 22.7939C35.0708 22.9071 35.0484 23.0191 35.0049 23.1236C34.9614 23.2281 34.8977 23.323 34.8174 23.4027C34.737 23.4825 34.6418 23.5456 34.537 23.5884C34.4322 23.6313 34.3199 23.653 34.2067 23.6523Z" fill="#001EC8"/>
<path d="M34.2067 29.7304H9.88163C9.76841 29.7311 9.65617 29.7094 9.55137 29.6666C9.44657 29.6238 9.35128 29.5606 9.27098 29.4809C9.19067 29.4011 9.12694 29.3062 9.08345 29.2017C9.03997 29.0973 9.01758 28.9852 9.01758 28.872C9.01758 28.7589 9.03997 28.6468 9.08345 28.5423C9.12694 28.4379 9.19067 28.343 9.27098 28.2632C9.35128 28.1834 9.44657 28.1203 9.55137 28.0775C9.65617 28.0347 9.76841 28.013 9.88163 28.0137H34.2067C34.3199 28.013 34.4322 28.0347 34.537 28.0775C34.6418 28.1203 34.737 28.1834 34.8174 28.2632C34.8977 28.343 34.9614 28.4379 35.0049 28.5423C35.0484 28.6468 35.0708 28.7589 35.0708 28.872C35.0708 28.9852 35.0484 29.0973 35.0049 29.2017C34.9614 29.3062 34.8977 29.4011 34.8174 29.4809C34.737 29.5606 34.6418 29.6238 34.537 29.6666C34.4322 29.7094 34.3199 29.7311 34.2067 29.7304Z" fill="#001EC8"/>
<path d="M34.2073 35.8095H9.88221C9.65445 35.8095 9.43601 35.7191 9.27496 35.5581C9.11391 35.3971 9.02344 35.1788 9.02344 34.9511C9.02344 34.7235 9.11391 34.5052 9.27496 34.3442C9.43601 34.1832 9.65445 34.0928 9.88221 34.0928H34.2073C34.4351 34.0928 34.6535 34.1832 34.8145 34.3442C34.9756 34.5052 35.0661 34.7235 35.0661 34.9511C35.0661 35.1788 34.9756 35.3971 34.8145 35.5581C34.6535 35.7191 34.4351 35.8095 34.2073 35.8095Z" fill="#001EC8"/>
<path d="M164.417 1.71673C164.873 1.71725 165.309 1.89829 165.631 2.22012C165.953 2.54195 166.134 2.9783 166.135 3.43344V40.6347C166.134 41.0898 165.953 41.5262 165.631 41.848C165.309 42.1698 164.873 42.3509 164.417 42.3514H127.959C127.503 42.3509 127.067 42.1698 126.745 41.848C126.423 41.5262 126.242 41.0898 126.241 40.6347V3.43347C126.242 2.97833 126.423 2.54198 126.745 2.22015C127.067 1.89831 127.503 1.71728 127.959 1.71676H164.417V1.71673ZM164.417 2.46579e-05H127.959C127.048 2.46579e-05 126.174 0.361763 125.53 1.00566C124.885 1.64956 124.523 2.52288 124.523 3.43349V40.6347C124.523 41.5453 124.885 42.4186 125.53 43.0625C126.174 43.7064 127.048 44.0681 127.959 44.0681H164.417C165.328 44.0681 166.202 43.7064 166.846 43.0625C167.491 42.4186 167.853 41.5453 167.853 40.6347V3.43347C167.853 2.52286 167.491 1.64954 166.846 1.00564C166.202 0.361738 165.328 0 164.417 0V2.46579e-05Z" fill="#D6D6D6"/>
<path d="M158.73 11.495H134.405C134.292 11.4957 134.18 11.4741 134.075 11.4312C133.97 11.3884 133.875 11.3253 133.794 11.2455C133.714 11.1657 133.65 11.0709 133.607 10.9664C133.563 10.8619 133.541 10.7499 133.541 10.6367C133.541 10.5235 133.563 10.4115 133.607 10.307C133.65 10.2025 133.714 10.1076 133.794 10.0279C133.875 9.9481 133.97 9.88498 134.075 9.84216C134.18 9.79933 134.292 9.77764 134.405 9.77834H158.73C158.957 9.77973 159.174 9.87078 159.334 10.0316C159.494 10.1924 159.584 10.41 159.584 10.6367C159.584 10.8634 159.494 11.081 159.334 11.2418C159.174 11.4026 158.957 11.4937 158.73 11.495H158.73Z" fill="#001EC8"/>
<path d="M158.73 17.5741H134.405C134.292 17.5748 134.18 17.5531 134.075 17.5103C133.97 17.4675 133.875 17.4044 133.794 17.3246C133.714 17.2448 133.65 17.15 133.607 17.0455C133.563 16.941 133.541 16.829 133.541 16.7158C133.541 16.6026 133.563 16.4906 133.607 16.3861C133.65 16.2816 133.714 16.1868 133.794 16.107C133.875 16.0272 133.97 15.9641 134.075 15.9213C134.18 15.8784 134.292 15.8567 134.405 15.8574H158.73C158.957 15.8588 159.174 15.9499 159.334 16.1107C159.494 16.2715 159.584 16.489 159.584 16.7158C159.584 16.9425 159.494 17.1601 159.334 17.3209C159.174 17.4817 158.957 17.5728 158.73 17.5741H158.73Z" fill="#001EC8"/>
<path d="M158.73 23.6523H134.405C134.292 23.653 134.18 23.6313 134.075 23.5884C133.97 23.5456 133.875 23.4825 133.794 23.4027C133.714 23.323 133.65 23.2281 133.607 23.1236C133.563 23.0191 133.541 22.9071 133.541 22.7939C133.541 22.6807 133.563 22.5687 133.607 22.4642C133.65 22.3597 133.714 22.2649 133.794 22.1851C133.875 22.1053 133.97 22.0422 134.075 21.9994C134.18 21.9566 134.292 21.9349 134.405 21.9356H158.73C158.957 21.937 159.174 22.028 159.334 22.1888C159.494 22.3496 159.584 22.5672 159.584 22.7939C159.584 23.0207 159.494 23.2382 159.334 23.399C159.174 23.5598 158.957 23.6509 158.73 23.6523H158.73Z" fill="#001EC8"/>
<path d="M158.73 29.7304H134.405C134.292 29.7311 134.18 29.7094 134.075 29.6666C133.97 29.6238 133.875 29.5606 133.794 29.4809C133.714 29.4011 133.65 29.3062 133.607 29.2017C133.563 29.0973 133.541 28.9852 133.541 28.872C133.541 28.7589 133.563 28.6468 133.607 28.5423C133.65 28.4379 133.714 28.343 133.794 28.2632C133.875 28.1834 133.97 28.1203 134.075 28.0775C134.18 28.0347 134.292 28.013 134.405 28.0137H158.73C158.957 28.0151 159.174 28.1061 159.334 28.2669C159.494 28.4278 159.584 28.6453 159.584 28.872C159.584 29.0988 159.494 29.3163 159.334 29.4771C159.174 29.638 158.957 29.729 158.73 29.7304H158.73Z" fill="#001EC8"/>
<path d="M158.731 35.8095H134.406C134.178 35.8095 133.959 35.7191 133.798 35.5581C133.637 35.3971 133.547 35.1788 133.547 34.9511C133.547 34.7235 133.637 34.5052 133.798 34.3442C133.959 34.1832 134.178 34.0928 134.406 34.0928H158.731C158.959 34.0928 159.177 34.1832 159.338 34.3442C159.499 34.5052 159.59 34.7235 159.59 34.9511C159.59 35.1788 159.499 35.3971 159.338 35.5581C159.177 35.7191 158.959 35.8095 158.731 35.8095H158.731Z" fill="#001EC8"/>
<path d="M288.335 73.246C288.791 73.2465 289.227 73.4276 289.549 73.7494C289.871 74.0713 290.052 74.5076 290.053 74.9627V112.164C290.052 112.619 289.871 113.055 289.549 113.377C289.227 113.699 288.791 113.88 288.335 113.881H251.877C251.421 113.88 250.985 113.699 250.663 113.377C250.341 113.055 250.16 112.619 250.159 112.164V74.9628C250.16 74.5076 250.341 74.0713 250.663 73.7494C250.985 73.4276 251.421 73.2466 251.877 73.2461H288.335V73.246ZM288.335 71.5293H251.877C250.965 71.5293 250.092 71.8911 249.448 72.535C248.803 73.1789 248.441 74.0522 248.441 74.9628V112.164C248.441 113.075 248.803 113.948 249.448 114.592C250.092 115.236 250.965 115.598 251.877 115.598H288.335C289.246 115.598 290.12 115.236 290.764 114.592C291.409 113.948 291.77 113.075 291.77 112.164V74.9628C291.77 74.0522 291.409 73.1788 290.764 72.5349C290.12 71.891 289.246 71.5293 288.335 71.5293V71.5293Z" fill="#001EC8"/>
<path d="M282.648 83.0243H258.323C258.21 83.025 258.098 83.0034 257.993 82.9605C257.888 82.9177 257.793 82.8546 257.712 82.7748C257.632 82.695 257.568 82.6002 257.525 82.4957C257.481 82.3912 257.459 82.2792 257.459 82.166C257.459 82.0528 257.481 81.9408 257.525 81.8363C257.568 81.7318 257.632 81.6369 257.712 81.5572C257.793 81.4774 257.888 81.4143 257.993 81.3715C258.098 81.3286 258.21 81.3069 258.323 81.3076H282.648C282.875 81.309 283.092 81.4001 283.252 81.5609C283.412 81.7217 283.502 81.9392 283.502 82.166C283.502 82.3927 283.412 82.6103 283.252 82.7711C283.092 82.9319 282.875 83.023 282.648 83.0243Z" fill="#001EC8"/>
<path d="M282.649 89.1035H258.324C258.096 89.1035 257.877 89.013 257.716 88.852C257.555 88.6911 257.465 88.4727 257.465 88.2451C257.465 88.0174 257.555 87.7991 257.716 87.6381C257.877 87.4772 258.096 87.3867 258.324 87.3867H282.649C282.876 87.3867 283.095 87.4772 283.256 87.6381C283.417 87.7991 283.507 88.0174 283.507 88.2451C283.507 88.4727 283.417 88.6911 283.256 88.852C283.095 89.013 282.876 89.1035 282.649 89.1035Z" fill="#001EC8"/>
<path d="M282.647 95.1815H258.322C258.209 95.1821 258.097 95.1603 257.992 95.1175C257.887 95.0746 257.792 95.0114 257.712 94.9317C257.632 94.8519 257.568 94.7571 257.525 94.6527C257.481 94.5482 257.459 94.4363 257.459 94.3232C257.459 94.2101 257.481 94.0982 257.525 93.9937C257.568 93.8893 257.632 93.7945 257.712 93.7147C257.792 93.635 257.887 93.5718 257.992 93.5289C258.097 93.4861 258.209 93.4643 258.322 93.4649H282.647C282.874 93.4662 283.091 93.5573 283.251 93.7181C283.411 93.8789 283.501 94.0965 283.501 94.3232C283.501 94.5499 283.411 94.7675 283.251 94.9283C283.091 95.0891 282.874 95.1802 282.647 95.1815Z" fill="#001EC8"/>
<path d="M282.648 101.26H258.323C258.21 101.26 258.098 101.239 257.993 101.196C257.888 101.153 257.793 101.09 257.712 101.01C257.632 100.93 257.568 100.836 257.525 100.731C257.481 100.627 257.459 100.515 257.459 100.401C257.459 100.288 257.481 100.176 257.525 100.072C257.568 99.9672 257.632 99.8723 257.712 99.7925C257.793 99.7128 257.888 99.6496 257.993 99.6068C258.098 99.564 258.21 99.5423 258.323 99.543H282.648C282.875 99.5444 283.092 99.6354 283.252 99.7962C283.412 99.9571 283.502 100.175 283.502 100.401C283.502 100.628 283.412 100.846 283.252 101.006C283.092 101.167 282.875 101.258 282.648 101.26Z" fill="#001EC8"/>
<path d="M282.648 107.339H258.323C258.21 107.339 258.098 107.318 257.993 107.275C257.888 107.232 257.793 107.169 257.712 107.089C257.632 107.009 257.568 106.915 257.525 106.81C257.481 106.706 257.459 106.594 257.459 106.48C257.459 106.367 257.481 106.255 257.525 106.151C257.568 106.046 257.632 105.951 257.712 105.872C257.793 105.792 257.888 105.729 257.993 105.686C258.098 105.643 258.21 105.621 258.323 105.622H282.648C282.875 105.623 283.092 105.715 283.252 105.875C283.412 106.036 283.502 106.254 283.502 106.48C283.502 106.707 283.412 106.925 283.252 107.086C283.092 107.246 282.875 107.337 282.648 107.339Z" fill="#001EC8"/>
<path d="M102.632 44.0686H65.2186C64.2069 44.0674 63.2369 43.6651 62.5214 42.9501C61.806 42.235 61.4035 41.2654 61.4023 40.2541V13.4955C61.4034 12.4842 61.8059 11.5146 62.5213 10.7994C63.2368 10.0842 64.2068 9.68187 65.2186 9.68066H102.632C103.644 9.68178 104.614 10.0841 105.33 10.7992C106.045 11.5144 106.448 12.4841 106.449 13.4955V40.2541C106.448 41.2655 106.045 42.2351 105.33 42.9502C104.614 43.6653 103.644 44.0675 102.632 44.0686ZM65.2186 11.3974C64.6622 11.3981 64.1287 11.6194 63.7352 12.0127C63.3418 12.4061 63.1205 12.9393 63.1199 13.4955V40.2541C63.1205 40.8103 63.3418 41.3435 63.7353 41.7368C64.1287 42.1301 64.6622 42.3513 65.2186 42.3519H102.632C103.189 42.3513 103.722 42.1301 104.116 41.7368C104.509 41.3436 104.731 40.8104 104.731 40.2541V13.4955C104.731 12.9393 104.509 12.406 104.116 12.0127C103.722 11.6193 103.189 11.3981 102.632 11.3974H65.2186Z" fill="#D6D6D6"/>
<path d="M96.0888 21.6542H71.7637C71.5368 21.6528 71.3197 21.5618 71.1598 21.401C70.9999 21.2401 70.9102 21.0226 70.9102 20.7959C70.9102 20.5691 70.9999 20.3516 71.1598 20.1908C71.3197 20.03 71.5368 19.9389 71.7637 19.9375H96.0888C96.202 19.9368 96.3142 19.9585 96.419 20.0013C96.5238 20.0442 96.6191 20.1073 96.6994 20.1871C96.7797 20.2668 96.8435 20.3617 96.887 20.4662C96.9304 20.5707 96.9528 20.6827 96.9528 20.7959C96.9528 20.909 96.9304 21.0211 96.887 21.1256C96.8435 21.2301 96.7797 21.3249 96.6994 21.4047C96.6191 21.4845 96.5238 21.5476 96.419 21.5904C96.3142 21.6332 96.202 21.6549 96.0888 21.6542Z" fill="#001EC8"/>
<path d="M96.0888 27.7323H71.7637C71.5368 27.731 71.3197 27.6399 71.1598 27.4791C70.9999 27.3183 70.9102 27.1007 70.9102 26.874C70.9102 26.6473 70.9999 26.4297 71.1598 26.2689C71.3197 26.1081 71.5368 26.017 71.7637 26.0156H96.0888C96.202 26.0149 96.3142 26.0366 96.419 26.0795C96.5238 26.1223 96.6191 26.1854 96.6994 26.2652C96.7797 26.345 96.8435 26.4398 96.887 26.5443C96.9304 26.6488 96.9528 26.7608 96.9528 26.874C96.9528 26.9872 96.9304 27.0992 96.887 27.2037C96.8435 27.3082 96.7797 27.403 96.6994 27.4828C96.6191 27.5626 96.5238 27.6257 96.419 27.6685C96.3142 27.7114 96.202 27.733 96.0888 27.7323Z" fill="#001EC8"/>
<path d="M96.0888 33.8105H71.7637C71.5368 33.8091 71.3197 33.718 71.1598 33.5572C70.9999 33.3964 70.9102 33.1789 70.9102 32.9521C70.9102 32.7254 70.9999 32.5078 71.1598 32.347C71.3197 32.1862 71.5368 32.0952 71.7637 32.0938H96.0888C96.202 32.0931 96.3142 32.1148 96.419 32.1576C96.5238 32.2004 96.6191 32.2635 96.6994 32.3433C96.7797 32.4231 96.8435 32.5179 96.887 32.6224C96.9304 32.7269 96.9528 32.8389 96.9528 32.9521C96.9528 33.0653 96.9304 33.1773 96.887 33.2818C96.8435 33.3863 96.7797 33.4812 96.6994 33.5609C96.6191 33.6407 96.5238 33.7038 96.419 33.7467C96.3142 33.7895 96.202 33.8112 96.0888 33.8105Z" fill="#001EC8"/>
<path d="M226.777 58.8954L190.844 48.4798C189.873 48.197 189.053 47.5406 188.565 46.6546C188.077 45.7686 187.961 44.7254 188.242 43.7538L195.698 18.0541C195.981 17.0831 196.638 16.2638 197.524 15.7761C198.411 15.2884 199.454 15.1721 200.427 15.4526L236.36 25.8682C237.331 26.151 238.151 26.8074 238.639 27.6935C239.127 28.5796 239.243 29.6229 238.962 30.5946L231.506 56.2944C231.223 57.2654 230.566 58.0845 229.679 58.5722C228.793 59.0598 227.749 59.176 226.777 58.8954ZM199.948 17.1014C199.414 16.9471 198.84 17.0112 198.352 17.2794C197.865 17.5476 197.503 17.9982 197.348 18.5322L189.891 44.232C189.737 44.7663 189.801 45.34 190.069 45.8273C190.338 46.3145 190.788 46.6755 191.322 46.831L227.255 57.2466C227.79 57.4009 228.364 57.337 228.852 57.0689C229.339 56.8007 229.7 56.3502 229.856 55.8162L237.313 30.1165C237.467 29.5821 237.403 29.0083 237.135 28.5209C236.866 28.0336 236.416 27.6726 235.881 27.517L199.948 17.1014Z" fill="#D6D6D6"/>
<path d="M226.736 35.547L203.374 28.7751C203.155 28.7113 202.971 28.5636 202.862 28.3643C202.752 28.165 202.726 27.9304 202.79 27.7121C202.853 27.4937 203.001 27.3094 203.2 27.1996C203.399 27.0897 203.634 27.0634 203.852 27.1263L227.215 33.8982C227.433 33.9616 227.618 34.1092 227.728 34.3087C227.838 34.5081 227.864 34.743 227.8 34.9616C227.737 35.1803 227.589 35.3648 227.39 35.4746C227.19 35.5843 226.955 35.6104 226.736 35.547H226.736Z" fill="#001EC8"/>
<path d="M225.045 41.3853L201.682 34.6134C201.574 34.582 201.473 34.5296 201.385 34.4592C201.297 34.3887 201.223 34.3017 201.169 34.2029C201.115 34.1042 201.08 33.9957 201.068 33.8836C201.055 33.7716 201.065 33.6582 201.096 33.55C201.128 33.4417 201.18 33.3407 201.251 33.2527C201.321 33.1647 201.408 33.0914 201.507 33.037C201.606 32.9827 201.715 32.9483 201.827 32.9359C201.939 32.9235 202.052 32.9332 202.16 32.9646L225.523 39.7365C225.741 39.8003 225.925 39.948 226.035 40.1473C226.144 40.3466 226.17 40.5812 226.107 40.7995C226.044 41.0179 225.896 41.2022 225.697 41.312C225.498 41.4219 225.263 41.4482 225.045 41.3853Z" fill="#001EC8"/>
<path d="M223.35 47.2228L199.987 40.4509C199.769 40.3871 199.585 40.2394 199.475 40.0401C199.366 39.8408 199.34 39.6062 199.403 39.3878C199.466 39.1695 199.614 38.9852 199.813 38.8753C200.012 38.7655 200.247 38.7392 200.466 38.8021L223.828 45.574C224.047 45.6374 224.231 45.785 224.341 45.9845C224.451 46.1839 224.477 46.4188 224.414 46.6374C224.35 46.8561 224.202 47.0406 224.003 47.1503C223.803 47.2601 223.568 47.2862 223.35 47.2228Z" fill="#001EC8"/>
<path d="M461.001 327.384H84.1289V329H461.001V327.384Z" fill="#D6D6D6"/>
<path d="M302.947 324.858H241.662L243.74 297.864H300.87L302.947 324.858Z" fill="#D6D6D6"/>
<path d="M307.101 321.743H238.545V327.973H307.101V321.743Z" fill="#D6D6D6"/>
<path d="M389.68 123.961H155.447C153.794 123.961 152.209 124.617 151.04 125.785C149.871 126.954 149.215 128.538 149.215 130.19V272.947H395.912V130.19C395.912 129.372 395.751 128.562 395.438 127.806C395.125 127.051 394.666 126.364 394.087 125.785C393.508 125.207 392.821 124.748 392.065 124.435C391.309 124.122 390.498 123.961 389.68 123.961H389.68Z" fill="#2A3042"/>
<path d="M149.215 272.946V296.306C149.215 297.125 149.376 297.935 149.689 298.69C150.002 299.446 150.462 300.133 151.04 300.711C151.619 301.29 152.306 301.749 153.062 302.062C153.818 302.375 154.629 302.536 155.447 302.536H389.68C391.333 302.536 392.918 301.88 394.087 300.711C395.256 299.543 395.912 297.959 395.912 296.306V272.946H149.215Z" fill="#D6D6D6"/>
<path d="M383.967 136.938H161.68V261.526H383.967V136.938Z" fill="#D6D6D6"/>
<path d="M272.824 293.711C276.266 293.711 279.056 290.922 279.056 287.481C279.056 284.041 276.266 281.252 272.824 281.252C269.382 281.252 266.592 284.041 266.592 287.481C266.592 290.922 269.382 293.711 272.824 293.711Z" fill="#2A3042"/>
<path d="M168.61 142.201C169.264 142.201 169.793 141.672 169.793 141.019C169.793 140.366 169.264 139.837 168.61 139.837C167.957 139.837 167.428 140.366 167.428 141.019C167.428 141.672 167.957 142.201 168.61 142.201Z" fill="white"/>
<path d="M173.101 142.201C173.754 142.201 174.283 141.672 174.283 141.019C174.283 140.366 173.754 139.837 173.101 139.837C172.447 139.837 171.918 140.366 171.918 141.019C171.918 141.672 172.447 142.201 173.101 142.201Z" fill="white"/>
<path d="M177.589 142.201C178.242 142.201 178.772 141.672 178.772 141.019C178.772 140.366 178.242 139.837 177.589 139.837C176.936 139.837 176.406 140.366 176.406 141.019C176.406 141.672 176.936 142.201 177.589 142.201Z" fill="white"/>
<path d="M377.56 145.035H167.428V249.668H377.56V145.035Z" fill="white"/>
<path d="M181.397 160.951C181.2 160.951 181.011 161.03 180.872 161.169C180.733 161.308 180.654 161.497 180.654 161.694V199.225C180.654 199.422 180.733 199.611 180.872 199.75C181.011 199.889 181.2 199.968 181.397 199.968H224.761C224.958 199.968 225.147 199.889 225.286 199.75C225.425 199.611 225.503 199.422 225.504 199.225V161.694C225.503 161.497 225.425 161.308 225.286 161.169C225.147 161.03 224.958 160.951 224.761 160.951H181.397Z" fill="#D6D6D6"/>
<path d="M251.022 161.071C250.825 161.071 250.637 161.15 250.497 161.289C250.358 161.428 250.279 161.617 250.279 161.814V199.225C250.28 199.422 250.358 199.61 250.497 199.75C250.637 199.889 250.825 199.967 251.022 199.967H294.248C294.445 199.967 294.634 199.889 294.773 199.749C294.912 199.61 294.99 199.421 294.991 199.225V161.814C294.99 161.617 294.912 161.428 294.773 161.289C294.634 161.15 294.445 161.072 294.248 161.071H251.022Z" fill="#D6D6D6"/>
<path d="M319.918 160.68C319.721 160.68 319.533 160.758 319.393 160.897C319.254 161.037 319.176 161.225 319.176 161.422V199.225C319.176 199.422 319.254 199.611 319.393 199.75C319.533 199.889 319.721 199.967 319.918 199.968H363.593C363.79 199.967 363.979 199.889 364.118 199.75C364.257 199.611 364.336 199.422 364.336 199.225V161.422C364.336 161.225 364.257 161.037 364.118 160.897C363.979 160.758 363.79 160.68 363.593 160.68H319.918Z" fill="#D6D6D6"/>
<path d="M182.189 218.545C181.782 218.546 181.392 218.708 181.105 218.996C180.818 219.283 180.656 219.673 180.656 220.08C180.656 220.487 180.818 220.877 181.105 221.164C181.392 221.452 181.782 221.614 182.189 221.615H222.96C223.366 221.614 223.756 221.452 224.044 221.164C224.331 220.877 224.493 220.487 224.493 220.08C224.493 219.673 224.331 219.283 224.044 218.996C223.756 218.708 223.366 218.546 222.96 218.545H182.189Z" fill="#D6D6D6"/>
<path d="M182.189 225.848C181.782 225.848 181.393 226.01 181.105 226.298C180.818 226.586 180.656 226.976 180.656 227.383C180.656 227.79 180.818 228.18 181.105 228.467C181.393 228.755 181.782 228.917 182.189 228.918H200.546C200.953 228.917 201.343 228.755 201.63 228.467C201.918 228.18 202.079 227.79 202.079 227.383C202.079 226.976 201.918 226.586 201.63 226.298C201.343 226.01 200.953 225.848 200.546 225.848H182.189Z" fill="#001EC8"/>
<path d="M252.564 218.545C252.157 218.546 251.767 218.708 251.48 218.996C251.193 219.283 251.031 219.673 251.031 220.08C251.031 220.487 251.193 220.877 251.48 221.164C251.767 221.452 252.157 221.614 252.564 221.615H293.335C293.741 221.614 294.131 221.452 294.419 221.164C294.706 220.877 294.868 220.487 294.868 220.08C294.868 219.673 294.706 219.283 294.419 218.996C294.131 218.708 293.741 218.546 293.335 218.545H252.564Z" fill="#D6D6D6"/>
<path d="M252.562 225.848C252.156 225.848 251.766 226.01 251.478 226.298C251.191 226.586 251.029 226.976 251.029 227.383C251.029 227.79 251.191 228.18 251.478 228.467C251.766 228.755 252.156 228.917 252.562 228.918H270.919C271.326 228.917 271.716 228.755 272.003 228.467C272.291 228.18 272.452 227.79 272.452 227.383C272.452 226.976 272.291 226.586 272.003 226.298C271.716 226.01 271.326 225.848 270.919 225.848H252.562Z" fill="#001EC8"/>
<path d="M321.179 218.545C320.773 218.546 320.383 218.708 320.095 218.996C319.808 219.283 319.646 219.673 319.646 220.08C319.646 220.487 319.808 220.877 320.095 221.164C320.383 221.452 320.773 221.614 321.179 221.615H361.95C362.357 221.614 362.747 221.452 363.034 221.164C363.321 220.877 363.483 220.487 363.483 220.08C363.483 219.673 363.321 219.283 363.034 218.996C362.747 218.708 362.357 218.546 361.95 218.545H321.179Z" fill="#D6D6D6"/>
<path d="M182.189 211.004C181.782 211.005 181.392 211.167 181.105 211.455C180.818 211.742 180.656 212.132 180.656 212.539C180.656 212.946 180.818 213.336 181.105 213.623C181.392 213.911 181.782 214.073 182.189 214.074H222.96C223.366 214.073 223.756 213.911 224.044 213.623C224.331 213.336 224.493 212.946 224.493 212.539C224.493 212.132 224.331 211.742 224.044 211.455C223.756 211.167 223.366 211.005 222.96 211.004H182.189Z" fill="#D6D6D6"/>
<path d="M252.564 211.004C252.157 211.005 251.767 211.167 251.48 211.455C251.193 211.742 251.031 212.132 251.031 212.539C251.031 212.946 251.193 213.336 251.48 213.623C251.767 213.911 252.157 214.073 252.564 214.074H293.335C293.741 214.073 294.131 213.911 294.419 213.623C294.706 213.336 294.868 212.946 294.868 212.539C294.868 212.132 294.706 211.742 294.419 211.455C294.131 211.167 293.741 211.005 293.335 211.004H252.564Z" fill="#D6D6D6"/>
<path d="M321.179 211.004C320.773 211.005 320.383 211.167 320.095 211.455C319.808 211.742 319.646 212.132 319.646 212.539C319.646 212.946 319.808 213.336 320.095 213.623C320.383 213.911 320.773 214.073 321.179 214.074H361.95C362.357 214.073 362.747 213.911 363.034 213.623C363.321 213.336 363.483 212.946 363.483 212.539C363.483 212.132 363.321 211.742 363.034 211.455C362.747 211.167 362.357 211.005 361.95 211.004H321.179Z" fill="#D6D6D6"/>
<path d="M321.178 225.848C320.771 225.848 320.381 226.01 320.093 226.298C319.806 226.586 319.645 226.976 319.645 227.383C319.645 227.79 319.806 228.18 320.093 228.467C320.381 228.755 320.771 228.917 321.178 228.918H339.534C339.941 228.917 340.331 228.755 340.618 228.467C340.906 228.18 341.067 227.79 341.067 227.383C341.067 226.976 340.906 226.586 340.618 226.298C340.331 226.01 339.941 225.848 339.534 225.848H321.178Z" fill="#001EC8"/>
</g>
<defs>
<clipPath id="clip0">
<rect width="461" height="329" fill="white"/>
</clipPath>
</defs>
</svg>
